<svg width="36" height="32" viewBox="0 0 36 32" fill="none" xmlns="http://www.w3.org/2000/svg" xmlns:xlink="http://www.w3.org/1999/xlink">
<path d="M14.664,26.686C15.492,26.686 16.164,26.015 16.164,25.186C16.164,24.358 15.492,23.686 14.664,23.686L14.664,26.686ZM2.063,23.686C1.234,23.686 0.563,24.358 0.563,25.186C0.563,26.015 1.234,26.686 2.063,26.686L2.063,23.686ZM14.664,23.686L2.063,23.686L2.063,26.686L14.664,26.686L14.664,23.686Z" fill="#565656"/>
<path d="M20.281,4.299C19.453,4.299 18.781,4.971 18.781,5.799C18.781,6.628 19.453,7.299 20.281,7.299L20.281,4.299ZM32.883,7.299C33.711,7.299 34.383,6.628 34.383,5.799C34.383,4.971 33.711,4.299 32.883,4.299L32.883,7.299ZM20.281,7.299L32.883,7.299L32.883,4.299L20.281,4.299L20.281,7.299Z" fill="#565656"/>
<path d="M12.953,5.692C12.953,2.263 10.155,-0.5 6.726,-0.5L6.726,2.5C8.518,2.5 9.953,3.94 9.953,5.692L12.953,5.692ZM6.726,-0.5C3.298,-0.5 0.5,2.263 0.5,5.692L3.5,5.692C3.5,3.94 4.935,2.5 6.726,2.5L6.726,-0.5ZM0.5,5.692C0.5,9.122 3.298,11.885 6.726,11.885L6.726,8.885C4.935,8.885 3.5,7.445 3.5,5.692L0.5,5.692ZM6.726,11.885C10.155,11.885 12.953,9.122 12.953,5.692L9.953,5.692C9.953,7.445 8.518,8.885 6.726,8.885L6.726,11.885Z" fill="#565656"/>
<path d="M35.499,25.107C35.499,21.677 32.704,18.914 29.275,18.914L29.275,21.914C31.066,21.914 32.499,23.353 32.499,25.107L35.499,25.107ZM29.275,18.914C25.845,18.914 23.047,21.676 23.047,25.107L26.047,25.107C26.047,23.354 27.481,21.914 29.275,21.914L29.275,18.914ZM23.047,25.107C23.047,28.537 25.845,31.299 29.275,31.299L29.275,28.299C27.481,28.299 26.047,26.859 26.047,25.107L23.047,25.107ZM29.275,31.299C32.704,31.299 35.499,28.536 35.499,25.107L32.499,25.107C32.499,26.86 31.066,28.299 29.275,28.299L29.275,31.299Z" fill="#565656"/>
</svg>
