<svg width="36" height="34" viewBox="0 0 36 34" fill="none" xmlns="http://www.w3.org/2000/svg" xmlns:xlink="http://www.w3.org/1999/xlink">
<path d="M14.664,27.594C15.492,27.594 16.164,26.922 16.164,26.094C16.164,25.265 15.492,24.594 14.664,24.594L14.664,27.594ZM2.063,24.594C1.234,24.594 0.563,25.265 0.563,26.094C0.563,26.922 1.234,27.594 2.063,27.594L2.063,24.594ZM14.664,24.594L2.063,24.594L2.063,27.594L14.664,27.594L14.664,24.594Z" fill="#565656"/>
<path d="M20.281,5.207C19.453,5.207 18.781,5.879 18.781,6.707C18.781,7.536 19.453,8.207 20.281,8.207L20.281,5.207ZM32.883,8.207C33.711,8.207 34.383,7.536 34.383,6.707C34.383,5.879 33.711,5.207 32.883,5.207L32.883,8.207ZM20.281,8.207L32.883,8.207L32.883,5.207L20.281,5.207L20.281,8.207Z" fill="#565656"/>
<path d="M12.953,6.6C12.953,3.17 10.155,0.408 6.726,0.408L6.726,3.408C8.518,3.408 9.953,4.847 9.953,6.6L12.953,6.6ZM6.726,0.408C3.298,0.408 0.5,3.17 0.5,6.6L3.5,6.6C3.5,4.847 4.935,3.408 6.726,3.408L6.726,0.408ZM0.5,6.6C0.5,10.03 3.298,12.793 6.726,12.793L6.726,9.793C4.935,9.793 3.5,8.353 3.5,6.6L0.5,6.6ZM6.726,12.793C10.155,12.793 12.953,10.03 12.953,6.6L9.953,6.6C9.953,8.353 8.518,9.793 6.726,9.793L6.726,12.793Z" fill="#565656"/>
<path d="M35.499,26.014C35.499,22.585 32.704,19.822 29.275,19.822L29.275,22.822C31.066,22.822 32.499,24.261 32.499,26.014L35.499,26.014ZM29.275,19.822C25.845,19.822 23.047,22.584 23.047,26.014L26.047,26.014C26.047,24.262 27.481,22.822 29.275,22.822L29.275,19.822ZM23.047,26.014C23.047,29.444 25.845,32.207 29.275,32.207L29.275,29.207C27.481,29.207 26.047,27.767 26.047,26.014L23.047,26.014ZM29.275,32.207C32.704,32.207 35.499,29.443 35.499,26.014L32.499,26.014C32.499,27.768 31.066,29.207 29.275,29.207L29.275,32.207Z" fill="#565656"/>
</svg>
