<svg width="80" height="68" viewBox="0 0 80 68" fill="none" xmlns="http://www.w3.org/2000/svg" xmlns:xlink="http://www.w3.org/1999/xlink">
<path d="M6.079,56.473C10.094,56.473 9.934,56.845 13.069,56.845L12.803,41.306L14.158,33.921L16.469,33.921L55.304,33.921L55.278,30.043L19.949,27.519L33.257,10.599L55.278,24.279L63.593,24.279L32.449,0.903L4.648,28.954L6.079,30.946L6.079,56.473Z" fill="#6096D7"/>
<path d="M5.123,57.27L14.132,57.27L14.132,40.376L14.132,33.932L15.566,33.932L55.305,33.932L55.305,30.017L14.079,28.609L32.113,9.921L55.278,24.279L31.493,0L0,30.043L5.123,30.043L5.123,57.27Z" fill="#0054A5"/>
<path d="M29.272,20.984L28.422,20.984C28.187,20.984 27.997,21.175 27.997,21.409L27.997,22.259C27.997,22.494 28.187,22.684 28.422,22.684L29.272,22.684C29.507,22.684 29.697,22.494 29.697,22.259L29.697,21.409C29.697,21.175 29.507,20.984 29.272,20.984Z" fill="#0054A5"/>
<path d="M32.567,20.984L31.717,20.984C31.482,20.984 31.292,21.175 31.292,21.409L31.292,22.259C31.292,22.494 31.482,22.684 31.717,22.684L32.567,22.684C32.802,22.684 32.992,22.494 32.992,22.259L32.992,21.409C32.992,21.175 32.802,20.984 32.567,20.984Z" fill="#0054A5"/>
<path d="M29.272,24.278L28.422,24.278C28.187,24.278 27.997,24.468 27.997,24.703L27.997,25.553C27.997,25.788 28.187,25.978 28.422,25.978L29.272,25.978C29.507,25.978 29.697,25.788 29.697,25.553L29.697,24.703C29.697,24.468 29.507,24.278 29.272,24.278Z" fill="#0054A5"/>
<path d="M32.567,24.278L31.717,24.278C31.482,24.278 31.292,24.468 31.292,24.703L31.292,25.553C31.292,25.788 31.482,25.978 31.717,25.978L32.567,25.978C32.802,25.978 32.992,25.788 32.992,25.553L32.992,24.703C32.992,24.468 32.802,24.278 32.567,24.278Z" fill="#0054A5"/>
<rect  x="23.268" y="36.763" width="9.988" height="20.507" fill="#0054A5"/>
<rect  x="69.277" y="29.963" width="4.808" height="4.409" fill="#0054A5"/>
<g filter="url(#filter1_2579)">
<path d="M24.067,37.614L28.716,38.438L28.716,55.598L24.067,56.262L24.067,37.614Z" fill="#6096D7"/>
</g>
<path d="M42.055,37.099L46.176,44.637L50.364,37.099L55.456,37.099L49.301,47.309L55.562,57.52L50.497,57.52L46.176,50.168L41.896,57.52L36.79,57.52L43.012,47.309L36.95,37.099L42.055,37.099ZM64.324,30.292L64.324,57.52L59.391,57.52L59.391,30.292L64.324,30.292Z" fill="#0054A5"/>
<path d="M78.122,36.835L78.122,40.557L66.384,40.557L66.384,36.835L78.122,36.835ZM69.282,31.942L74.094,31.942L74.094,51.113C74.094,51.76 74.191,52.257 74.387,52.602C74.591,52.939 74.857,53.169 75.184,53.294C75.512,53.418 75.876,53.48 76.275,53.48C76.576,53.48 76.85,53.457 77.099,53.413C77.356,53.369 77.551,53.329 77.684,53.294L78.494,57.056C78.237,57.144 77.87,57.242 77.391,57.348C76.922,57.455 76.345,57.517 75.663,57.534C74.457,57.57 73.372,57.388 72.406,56.989C71.44,56.582 70.673,55.952 70.106,55.102C69.548,54.251 69.272,53.187 69.282,51.911L69.282,31.942Z" fill="#0054A5"/>
<defs>
<filter id="filter1_2579" x="23.392675" y="36.939733" width="3.673731" height="10.673131" filterUnits="userSpaceOnUse" color-interpolation-filters="sRGB">
<feFlood flood-opacity="0" result="BackgroundImageFix"/>
<feColorMatrix in="SourceAlpha" type="matrix" values="0 0 0 0 0 0 0 0 0 0 0 0 0 0 0 0 0 0 127 0" result="hardAlpha"/>
<feMorphology radius="0" operator="dilate" in="SourceAlpha" result="0dropshadow"/>
<feOffset dx="0" dy="0.168677"/>
<feGaussianBlur stdDeviation="0.337354"/>
<feComposite in2="hardAlpha" operator="out"/>
<feColorMatrix type="matrix" values="0 0 0 0 0 0 0 0 0 0 0 0 0 0 0 0 0 0 0.15 0"/>
<feBlend mode="normal" in2="BackgroundImageFix" result="0dropshadow"/>
<feBlend mode="normal" in="SourceGraphic" in2="0dropshadow" result="shape"/>
</filter>
</defs>
</svg>
