<svg width="80" height="68" viewBox="0 0 80 68" fill="none" xmlns="http://www.w3.org/2000/svg" xmlns:xlink="http://www.w3.org/1999/xlink">
<path d="M6.079,57.381C10.094,57.381 9.934,57.753 13.069,57.753L12.803,42.214L14.158,34.829L16.469,34.829L55.304,34.829L55.278,30.951L19.949,28.427L33.257,11.506L55.278,25.186L63.593,25.186L32.449,1.811L4.648,29.862L6.079,31.854L6.079,57.381Z" fill="#6096D7"/>
<path d="M5.123,58.178L14.132,58.178L14.132,41.284L14.132,34.84L15.566,34.84L55.305,34.84L55.305,30.924L14.079,29.516L32.113,10.829L55.278,25.187L31.493,0.908L0,30.951L5.123,30.951L5.123,58.178Z" fill="#0054A5"/>
<path d="M29.272,21.892L28.422,21.892C28.187,21.892 27.997,22.082 27.997,22.317L27.997,23.167C27.997,23.402 28.187,23.592 28.422,23.592L29.272,23.592C29.507,23.592 29.697,23.402 29.697,23.167L29.697,22.317C29.697,22.082 29.507,21.892 29.272,21.892Z" fill="#0054A5"/>
<path d="M32.567,21.892L31.717,21.892C31.482,21.892 31.292,22.082 31.292,22.317L31.292,23.167C31.292,23.402 31.482,23.592 31.717,23.592L32.567,23.592C32.802,23.592 32.992,23.402 32.992,23.167L32.992,22.317C32.992,22.082 32.802,21.892 32.567,21.892Z" fill="#0054A5"/>
<path d="M29.272,25.185L28.422,25.185C28.187,25.185 27.997,25.376 27.997,25.61L27.997,26.461C27.997,26.695 28.187,26.886 28.422,26.886L29.272,26.886C29.507,26.886 29.697,26.695 29.697,26.461L29.697,25.61C29.697,25.376 29.507,25.185 29.272,25.185Z" fill="#0054A5"/>
<path d="M32.567,25.185L31.717,25.185C31.482,25.185 31.292,25.376 31.292,25.61L31.292,26.461C31.292,26.695 31.482,26.886 31.717,26.886L32.567,26.886C32.802,26.886 32.992,26.695 32.992,26.461L32.992,25.61C32.992,25.376 32.802,25.185 32.567,25.185Z" fill="#0054A5"/>
<rect  x="23.268" y="37.671" width="9.988" height="20.507" fill="#0054A5"/>
<rect  x="69.277" y="30.871" width="4.808" height="4.409" fill="#0054A5"/>
<g filter="url(#filter1_259)">
<path d="M24.067,38.522L28.716,39.346L28.716,56.506L24.067,57.17L24.067,38.522Z" fill="#6096D7"/>
</g>
<path d="M42.055,38.007L46.176,45.545L50.364,38.007L55.456,38.007L49.301,48.217L55.562,58.427L50.497,58.427L46.176,51.076L41.896,58.427L36.79,58.427L43.012,48.217L36.95,38.007L42.055,38.007ZM64.324,31.2L64.324,58.427L59.391,58.427L59.391,31.2L64.324,31.2Z" fill="#0054A5"/>
<path d="M78.122,37.742L78.122,41.465L66.384,41.465L66.384,37.742L78.122,37.742ZM69.282,32.85L74.094,32.85L74.094,52.021C74.094,52.668 74.192,53.164 74.387,53.51C74.591,53.847 74.857,54.077 75.184,54.201C75.512,54.325 75.876,54.387 76.275,54.387C76.576,54.387 76.85,54.365 77.099,54.321C77.356,54.276 77.551,54.237 77.684,54.201L78.494,57.963C78.237,58.052 77.87,58.15 77.392,58.256C76.922,58.362 76.345,58.424 75.663,58.442C74.457,58.478 73.372,58.296 72.406,57.897C71.44,57.489 70.673,56.86 70.106,56.009C69.548,55.158 69.272,54.095 69.282,52.818L69.282,32.85Z" fill="#0054A5"/>
<defs>
<filter id="filter1_259" x="23.392705" y="37.847448" width="3.673731" height="10.673131" filterUnits="userSpaceOnUse" color-interpolation-filters="sRGB">
<feFlood flood-opacity="0" result="BackgroundImageFix"/>
<feColorMatrix in="SourceAlpha" type="matrix" values="0 0 0 0 0 0 0 0 0 0 0 0 0 0 0 0 0 0 127 0" result="hardAlpha"/>
<feMorphology radius="0" operator="dilate" in="SourceAlpha" result="0dropshadow"/>
<feOffset dx="0" dy="0.168677"/>
<feGaussianBlur stdDeviation="0.337354"/>
<feComposite in2="hardAlpha" operator="out"/>
<feColorMatrix type="matrix" values="0 0 0 0 0 0 0 0 0 0 0 0 0 0 0 0 0 0 0.15 0"/>
<feBlend mode="normal" in2="BackgroundImageFix" result="0dropshadow"/>
<feBlend mode="normal" in="SourceGraphic" in2="0dropshadow" result="shape"/>
</filter>
</defs>
</svg>
