<svg width="24" height="26" viewBox="0 0 24 26" fill="none" xmlns="http://www.w3.org/2000/svg" xmlns:xlink="http://www.w3.org/1999/xlink">
<mask id="mask_0_1_5579" style="mask-type:alpha" maskUnits="userSpaceOnUse" x="0" y="2" width="12" height="12">
<path d="M11.045,5.092C11.335,4.152 12.665,4.152 12.955,5.092L14.615,10.462C14.745,10.881 15.132,11.167 15.57,11.167L21.044,11.167C22,11.167 22.411,12.381 21.651,12.962L17.138,16.409C16.805,16.664 16.666,17.099 16.79,17.499L18.493,23.011C18.78,23.941 17.704,24.692 16.93,24.101L12.607,20.798C12.249,20.524 11.751,20.524 11.393,20.798L7.07,24.101C6.296,24.692 5.22,23.941 5.507,23.011L7.21,17.499C7.334,17.099 7.195,16.664 6.862,16.409L2.349,12.962C1.589,12.381 2,11.167 2.956,11.167L8.43,11.167C8.868,11.167 9.255,10.881 9.385,10.462L11.045,5.092Z" fill="#565656"/>
</mask>
<path d="M11.045,5.092C11.335,4.152 12.665,4.152 12.955,5.092L14.615,10.462C14.745,10.881 15.132,11.167 15.57,11.167L21.044,11.167C22,11.167 22.411,12.381 21.651,12.962L17.138,16.409C16.805,16.664 16.666,17.099 16.79,17.499L18.493,23.011C18.78,23.941 17.704,24.692 16.93,24.101L12.607,20.798C12.249,20.524 11.751,20.524 11.393,20.798L7.07,24.101C6.296,24.692 5.22,23.941 5.507,23.011L7.21,17.499C7.334,17.099 7.195,16.664 6.862,16.409L2.349,12.962C1.589,12.381 2,11.167 2.956,11.167L8.43,11.167C8.868,11.167 9.255,10.881 9.385,10.462L11.045,5.092Z" fill="#0054A5"/>
<g mask="url(#mask_0_1_5579)">
<rect  x="10" y="0" width="12" height="26" fill="#D9D9D9"/>
</g>
</svg>
