<svg width="30" height="38" viewBox="0 0 30 38" fill="none" xmlns="http://www.w3.org/2000/svg" xmlns:xlink="http://www.w3.org/1999/xlink">
<path d="M14,34.667L12.659,35.338C12.913,35.846 13.432,36.167 14,36.167C14.568,36.167 15.088,35.846 15.342,35.338L14,34.667ZM17.5,13.833C17.5,15.766 15.933,17.333 14,17.333L14,20.333C17.59,20.333 20.5,17.423 20.5,13.833L17.5,13.833ZM14,17.333C12.067,17.333 10.5,15.766 10.5,13.833L7.5,13.833C7.5,17.423 10.41,20.333 14,20.333L14,17.333ZM10.5,13.833C10.5,11.9 12.067,10.333 14,10.333L14,7.333C10.41,7.333 7.5,10.243 7.5,13.833L10.5,13.833ZM14,10.333C15.933,10.333 17.5,11.9 17.5,13.833L20.5,13.833C20.5,10.243 17.59,7.333 14,7.333L14,10.333ZM25.834,14.667C25.834,18.567 23.699,21.531 20.835,24.514C20.124,25.255 19.385,25.98 18.632,26.721C17.885,27.455 17.125,28.204 16.402,28.967C14.961,30.485 13.591,32.131 12.659,33.996L15.342,35.338C16.076,33.869 17.206,32.477 18.578,31.032C19.261,30.312 19.985,29.598 20.736,28.859C21.481,28.127 22.252,27.37 22.999,26.592C25.968,23.5 28.834,19.797 28.834,14.667L25.834,14.667ZM15.342,33.996C14.41,32.131 13.04,30.485 11.599,28.967C10.875,28.204 10.115,27.455 9.369,26.721C8.616,25.98 7.877,25.255 7.166,24.514C4.301,21.531 2.167,18.567 2.167,14.667L-0.833,14.667C-0.833,19.797 2.033,23.5 5.002,26.592C5.749,27.37 6.52,28.127 7.265,28.859C8.016,29.598 8.74,30.312 9.423,31.032C10.794,32.477 11.924,33.869 12.659,35.338L15.342,33.996ZM2.167,14.667C2.167,8.131 7.465,2.833 14,2.833L14,-0.167C5.808,-0.167 -0.833,6.474 -0.833,14.667L2.167,14.667ZM14,2.833C20.536,2.833 25.834,8.131 25.834,14.667L28.834,14.667C28.834,6.474 22.193,-0.167 14,-0.167L14,2.833Z" fill="#0054A5"/>
</svg>
