<svg width="38" height="36" viewBox="0 0 38 36" fill="none" xmlns="http://www.w3.org/2000/svg" xmlns:xlink="http://www.w3.org/1999/xlink">
<path d="M14.319,17.589C14.971,18.241 16.029,18.241 16.681,17.589C17.333,16.936 17.333,15.879 16.681,15.227L14.319,17.589ZM3,2.241L3.528,0.657C2.928,0.457 2.267,0.613 1.819,1.06L3,2.241ZM8,3.908L9.67,3.908C9.67,3.189 9.21,2.551 8.528,2.323L8,3.908ZM3,8.908L1.416,9.436C1.643,10.118 2.281,10.578 3,10.578L3,8.908ZM1.333,3.908L0.153,2.727C-0.295,3.174 -0.451,3.836 -0.251,4.436L1.333,3.908ZM30.098,3.476L31.279,4.657C31.646,4.29 31.821,3.774 31.754,3.26C31.687,2.746 31.386,2.292 30.937,2.032L30.098,3.476ZM33.982,7.926L35.527,7.291C35.315,6.774 34.858,6.398 34.31,6.288C33.763,6.178 33.196,6.35 32.801,6.745L33.982,7.926ZM15.762,16.146L14.581,14.965L15.762,16.146ZM16.533,15.274L18.006,16.061L18.006,16.061L16.533,15.274ZM16.507,13.191L14.868,13.515L16.507,13.191ZM16.722,14.652L18.384,14.818L16.722,14.652ZM3.833,33.074L2.653,34.255L2.653,34.255L3.833,33.074ZM3.833,28.074L5.014,29.255L3.833,28.074ZM23.716,20.401L23.393,22.039L23.716,20.401ZM22.255,20.186L22.421,21.847L22.255,20.186ZM20.762,21.146L21.943,22.327L21.943,22.327L20.762,21.146ZM21.634,20.375L20.846,18.902L20.846,18.902L21.634,20.375ZM8.833,33.074L7.653,31.893L7.653,31.893L8.833,33.074ZM26.114,12.022L27.295,10.841L27.295,10.841L26.114,12.022ZM27.485,13.136L26.969,14.724L26.969,14.724L27.485,13.136ZM29.886,12.022L31.067,13.203L31.067,13.203L29.886,12.022ZM28.515,13.136L29.031,14.724L29.031,14.724L28.515,13.136ZM25.719,7.855L24.538,6.675L24.538,6.675L25.719,7.855ZM24.605,9.226L23.017,8.71L23.017,8.71L24.605,9.226ZM25.719,11.627L24.538,12.808L24.538,12.808L25.719,11.627ZM24.605,10.256L23.017,10.772L23.017,10.772L24.605,10.256ZM18,23.908L16.819,22.727C16.506,23.04 16.33,23.465 16.33,23.908C16.33,24.35 16.506,24.775 16.819,25.088L18,23.908ZM24.626,20.533L25.806,19.352C25.532,19.078 25.17,18.907 24.783,18.871L24.626,20.533ZM23.068,20.248L23.51,18.638L23.51,18.638L23.068,20.248ZM21.233,20.675L22.414,21.856L22.414,21.856L21.233,20.675ZM32.167,28.074L33.348,26.893L33.348,26.893L32.167,28.074ZM27.167,33.074L25.986,34.255L25.986,34.255L27.167,33.074ZM6.819,10.089L14.319,17.589L16.681,15.227L9.181,7.727L6.819,10.089ZM2.472,3.825L7.472,5.492L8.528,2.323L3.528,0.657L2.472,3.825ZM4.584,8.38L2.918,3.38L-0.251,4.436L1.416,9.436L4.584,8.38ZM2.514,5.089L4.181,3.422L1.819,1.06L0.153,2.727L2.514,5.089ZM8,7.238L3,7.238L3,10.578L8,10.578L8,7.238ZM6.33,3.908L6.33,8.908L9.67,8.908L9.67,3.908L6.33,3.908ZM26.9,9.036L31.279,4.657L28.918,2.295L24.538,6.675L26.9,9.036ZM27.295,10.841L26.9,10.446L24.538,12.808L24.934,13.203L27.295,10.841ZM32.801,6.745L28.705,10.841L31.067,13.203L35.163,9.106L32.801,6.745ZM36.337,11.408C36.337,9.954 36.049,8.562 35.527,7.291L32.438,8.56C32.797,9.436 32.997,10.397 32.997,11.408L36.337,11.408ZM25.5,22.244C31.485,22.244 36.337,17.393 36.337,11.408L32.997,11.408C32.997,15.548 29.64,18.904 25.5,18.904L25.5,22.244ZM23.393,22.039C24.076,22.174 24.781,22.244 25.5,22.244L25.5,18.904C24.999,18.904 24.511,18.855 24.039,18.762L23.393,22.039ZM10.014,34.255L21.943,22.327L19.581,19.965L7.653,31.893L10.014,34.255ZM14.581,14.965L2.653,26.893L5.014,29.255L16.943,17.327L14.581,14.965ZM14.663,11.408C14.663,12.127 14.734,12.832 14.868,13.515L18.145,12.868C18.052,12.397 18.003,11.909 18.003,11.408L14.663,11.408ZM25.5,0.571C19.515,0.571 14.663,5.423 14.663,11.408L18.003,11.408C18.003,7.267 21.36,3.911 25.5,3.911L25.5,0.571ZM30.937,2.032C29.338,1.103 27.478,0.571 25.5,0.571L25.5,3.911C26.873,3.911 28.156,4.279 29.259,4.92L30.937,2.032ZM16.943,17.327C17.287,16.983 17.742,16.554 18.006,16.061L15.061,14.486C15.097,14.418 15.117,14.41 15.031,14.506C14.941,14.605 14.811,14.735 14.581,14.965L16.943,17.327ZM14.868,13.515C14.951,13.933 15.003,14.2 15.034,14.395C15.049,14.488 15.054,14.539 15.056,14.562C15.058,14.588 15.054,14.555 15.06,14.487L18.384,14.818C18.419,14.466 18.372,14.121 18.333,13.873C18.29,13.601 18.223,13.26 18.145,12.868L14.868,13.515ZM18.006,16.061C18.093,15.899 18.189,15.701 18.262,15.46C18.335,15.22 18.366,15.002 18.384,14.818L15.06,14.487C15.056,14.526 15.054,14.539 15.055,14.536C15.055,14.534 15.056,14.529 15.058,14.52C15.06,14.51 15.063,14.5 15.067,14.488C15.07,14.476 15.074,14.466 15.077,14.457C15.08,14.448 15.083,14.443 15.084,14.441C15.084,14.439 15.079,14.451 15.061,14.486L18.006,16.061ZM5.014,31.893C4.286,31.165 4.286,29.984 5.014,29.255L2.653,26.893C0.62,28.926 0.62,32.222 2.653,34.255L5.014,31.893ZM24.039,18.762C23.648,18.685 23.307,18.618 23.035,18.575C22.787,18.535 22.442,18.489 22.09,18.524L22.421,21.847C22.353,21.854 22.32,21.85 22.345,21.852C22.369,21.853 22.42,21.859 22.513,21.874C22.708,21.904 22.975,21.957 23.393,22.039L24.039,18.762ZM21.943,22.327C22.173,22.097 22.303,21.967 22.402,21.877C22.498,21.791 22.489,21.811 22.422,21.847L20.846,18.902C20.354,19.166 19.925,19.621 19.581,19.965L21.943,22.327ZM22.09,18.524C21.906,18.542 21.688,18.573 21.448,18.646C21.207,18.719 21.009,18.815 20.846,18.902L22.422,21.847C22.457,21.828 22.469,21.823 22.467,21.824C22.465,21.825 22.459,21.827 22.451,21.831C22.442,21.834 22.431,21.838 22.42,21.841C22.408,21.845 22.397,21.848 22.388,21.85C22.379,21.852 22.373,21.853 22.371,21.853C22.369,21.854 22.382,21.851 22.421,21.847L22.09,18.524ZM7.653,31.893C6.924,32.622 5.743,32.622 5.014,31.893L2.653,34.255C4.686,36.288 7.981,36.288 10.014,34.255L7.653,31.893ZM24.934,13.203C25.244,13.513 25.547,13.818 25.824,14.053C26.115,14.301 26.486,14.567 26.969,14.724L28.001,11.548C28.104,11.581 28.119,11.62 27.985,11.507C27.837,11.381 27.645,11.191 27.295,10.841L24.934,13.203ZM28.705,10.841C28.355,11.191 28.163,11.381 28.015,11.507C27.881,11.62 27.896,11.581 27.999,11.548L29.031,14.724C29.515,14.567 29.885,14.301 30.176,14.053C30.453,13.818 30.756,13.513 31.067,13.203L28.705,10.841ZM26.969,14.724C27.639,14.942 28.361,14.942 29.031,14.724L27.999,11.548C28,11.547 28,11.547 28.001,11.548L26.969,14.724ZM24.538,6.675C24.228,6.985 23.923,7.288 23.688,7.565C23.44,7.856 23.174,8.226 23.017,8.71L26.194,9.742C26.16,9.845 26.121,9.86 26.234,9.726C26.36,9.578 26.55,9.386 26.9,9.036L24.538,6.675ZM26.9,10.446C26.55,10.096 26.36,9.904 26.234,9.756C26.121,9.622 26.16,9.637 26.194,9.74L23.017,10.772C23.174,11.256 23.44,11.626 23.688,11.917C23.923,12.194 24.228,12.497 24.538,12.808L26.9,10.446ZM23.017,8.71C22.799,9.38 22.799,10.102 23.017,10.772L26.194,9.74C26.194,9.741 26.194,9.741 26.194,9.742L23.017,8.71ZM28.348,31.893L19.181,22.727L16.819,25.088L25.986,34.255L28.348,31.893ZM23.445,21.714L30.986,29.255L33.348,26.893L25.806,19.352L23.445,21.714ZM24.783,18.871C24.346,18.829 23.921,18.751 23.51,18.638L22.626,21.859C23.222,22.022 23.837,22.136 24.468,22.196L24.783,18.871ZM23.51,18.638C22.396,18.332 21.029,18.517 20.052,19.494L22.414,21.856C22.405,21.864 22.407,21.856 22.442,21.848C22.481,21.839 22.547,21.837 22.626,21.859L23.51,18.638ZM20.052,19.494L16.819,22.727L19.181,25.088L22.414,21.856L20.052,19.494ZM33.348,34.255C35.38,32.222 35.38,28.926 33.348,26.893L30.986,29.255C31.714,29.984 31.714,31.165 30.986,31.893L33.348,34.255ZM25.986,34.255C28.019,36.288 31.315,36.288 33.348,34.255L30.986,31.893C30.257,32.622 29.076,32.622 28.348,31.893L25.986,34.255Z" fill="#565656"/>
</svg>
