<svg width="38" height="38" viewBox="0 0 38 38" fill="none" xmlns="http://www.w3.org/2000/svg" xmlns:xlink="http://www.w3.org/1999/xlink">
<path d="M18.308,37.819C7.687,37.819 -0.923,29.209 -0.923,18.588C-0.923,7.967 7.687,-0.643 18.308,-0.643C28.929,-0.643 37.539,7.967 37.539,18.588C37.539,29.209 28.929,37.819 18.308,37.819ZM18.308,35.896C27.867,35.896 35.615,28.147 35.615,18.588C35.615,9.029 27.867,1.28 18.308,1.28C8.749,1.28 1,9.029 1,18.588C1,28.147 8.749,35.896 18.308,35.896ZM18.285,32.05C11.431,32.05 4.926,25.476 4.926,20.725C4.926,17.999 10.85,21.28 18.285,21.28C25.72,21.28 31.709,18.003 31.689,20.725C31.655,25.329 25.139,32.05 18.285,32.05ZM18.285,25.992C24.658,25.992 29.066,23.528 29.066,21.752C29.066,19.975 24.658,22.811 18.285,22.811C11.912,22.811 7.577,20.315 7.577,21.752C7.577,23.188 11.912,25.992 18.285,25.992ZM12.514,15.174C11.253,15.174 10.231,14.152 10.231,12.891C10.231,11.629 11.253,10.607 12.514,10.607C13.776,10.607 14.798,11.629 14.798,12.891C14.798,14.152 13.776,15.174 12.514,15.174ZM24.053,15.174C22.792,15.174 21.769,14.152 21.769,12.891C21.769,11.629 22.792,10.607 24.053,10.607C25.314,10.607 26.337,11.629 26.337,12.891C26.337,14.152 25.314,15.174 24.053,15.174Z" clip-rule="evenodd" fill-rule="evenodd" fill="#000000"/>
</svg>
