<svg width="24" height="44" viewBox="0 0 24 44" fill="none" xmlns="http://www.w3.org/2000/svg" xmlns:xlink="http://www.w3.org/1999/xlink">
<path d="M0.879,37.879C-0.293,39.05 -0.293,40.95 0.879,42.121C2.05,43.293 3.95,43.293 5.121,42.121L0.879,37.879ZM21,22L23.121,24.121C24.293,22.95 24.293,21.05 23.121,19.879L21,22ZM5.121,1.879C3.95,0.707 2.05,0.707 0.879,1.879C-0.293,3.05 -0.293,4.95 0.879,6.121L5.121,1.879ZM5.121,42.121L23.121,24.121L18.879,19.879L0.879,37.879L5.121,42.121ZM23.121,19.879L5.121,1.879L0.879,6.121L18.879,24.121L23.121,19.879Z" fill="#FFFFFF"/>
</svg>
