<svg width="34" height="36" viewBox="0 0 34 36" fill="none" xmlns="http://www.w3.org/2000/svg" xmlns:xlink="http://www.w3.org/1999/xlink">
<path d="M10.082,27.01L9.74,25.345L10.082,27.01ZM8.812,27.455L8.039,25.941L8.812,27.455ZM1.182,32.36L2.511,31.3L2.511,31.3L1.182,32.36ZM1.834,32.674L1.836,34.374L1.834,32.674ZM30.455,24.178L31.97,24.95L31.97,24.95L30.455,24.178ZM28.27,26.363L29.042,27.878L29.042,27.878L28.27,26.363ZM28.27,2.453L29.042,0.938L29.042,0.938L28.27,2.453ZM30.455,4.638L31.97,3.866L31.97,3.866L30.455,4.638ZM3.73,2.453L2.958,0.938L2.958,0.938L3.73,2.453ZM1.545,4.638L0.03,3.866L0.03,3.866L1.545,4.638ZM7.667,9.374C6.728,9.374 5.967,10.135 5.967,11.074C5.967,12.013 6.728,12.774 7.667,12.774L7.667,9.374ZM16,12.774C16.939,12.774 17.7,12.013 17.7,11.074C17.7,10.135 16.939,9.374 16,9.374L16,12.774ZM7.667,15.208C6.728,15.208 5.967,15.969 5.967,16.908C5.967,17.847 6.728,18.608 7.667,18.608L7.667,15.208ZM21,18.608C21.939,18.608 22.7,17.847 22.7,16.908C22.7,15.969 21.939,15.208 21,15.208L21,18.608ZM9,3.608L23,3.608L23,0.208L9,0.208L9,3.608ZM29.3,9.908L29.3,18.908L32.7,18.908L32.7,9.908L29.3,9.908ZM2.7,30.8L2.7,9.908L-0.7,9.908L-0.7,30.8L2.7,30.8ZM23,25.208L12.14,25.208L12.14,28.608L23,28.608L23,25.208ZM6.08,27.333L2.104,30.514L4.228,33.169L8.204,29.988L6.08,27.333ZM12.14,25.208C11.168,25.208 10.446,25.2 9.74,25.345L10.424,28.675C10.713,28.616 11.031,28.608 12.14,28.608L12.14,25.208ZM8.204,29.988C9.069,29.296 9.323,29.103 9.586,28.969L8.039,25.941C7.398,26.269 6.839,26.726 6.08,27.333L8.204,29.988ZM9.74,25.345C9.149,25.466 8.577,25.667 8.039,25.941L9.586,28.969C9.851,28.834 10.133,28.735 10.424,28.675L9.74,25.345ZM-0.7,30.8C-0.7,31.21 -0.702,31.636 -0.67,31.982C-0.642,32.296 -0.566,32.896 -0.147,33.421L2.511,31.3C2.637,31.458 2.689,31.603 2.709,31.668C2.726,31.727 2.722,31.742 2.716,31.674C2.71,31.61 2.705,31.512 2.703,31.358C2.7,31.205 2.7,31.027 2.7,30.8L-0.7,30.8ZM2.104,30.514C1.928,30.655 1.788,30.767 1.667,30.86C1.545,30.955 1.466,31.012 1.412,31.048C1.356,31.085 1.365,31.073 1.421,31.05C1.484,31.024 1.63,30.974 1.832,30.974L1.836,34.374C2.508,34.373 3.024,34.058 3.287,33.884C3.577,33.692 3.908,33.425 4.228,33.169L2.104,30.514ZM-0.147,33.421C0.335,34.024 1.065,34.375 1.836,34.374L1.832,30.974C2.096,30.974 2.346,31.094 2.511,31.3L-0.147,33.421ZM29.3,18.908C29.3,20.336 29.299,21.305 29.238,22.053C29.178,22.782 29.07,23.151 28.94,23.406L31.97,24.95C32.385,24.135 32.55,23.269 32.626,22.33C32.701,21.411 32.7,20.28 32.7,18.908L29.3,18.908ZM23,28.608C24.372,28.608 25.503,28.609 26.422,28.534C27.361,28.457 28.227,28.292 29.042,27.878L27.498,24.848C27.243,24.978 26.874,25.086 26.146,25.145C25.397,25.206 24.428,25.208 23,25.208L23,28.608ZM28.94,23.406C28.624,24.027 28.119,24.532 27.498,24.848L29.042,27.878C30.302,27.235 31.327,26.21 31.97,24.95L28.94,23.406ZM23,3.608C24.428,3.608 25.397,3.609 26.146,3.67C26.874,3.73 27.243,3.837 27.498,3.967L29.042,0.938C28.227,0.523 27.361,0.358 26.422,0.281C25.503,0.206 24.372,0.208 23,0.208L23,3.608ZM32.7,9.908C32.7,8.536 32.701,7.404 32.626,6.485C32.55,5.546 32.385,4.68 31.97,3.866L28.94,5.41C29.07,5.665 29.178,6.034 29.238,6.762C29.299,7.511 29.3,8.48 29.3,9.908L32.7,9.908ZM27.498,3.967C28.119,4.284 28.624,4.789 28.94,5.41L31.97,3.866C31.327,2.605 30.302,1.58 29.042,0.938L27.498,3.967ZM9,0.208C7.628,0.208 6.497,0.206 5.578,0.281C4.639,0.358 3.773,0.523 2.958,0.938L4.502,3.967C4.757,3.837 5.126,3.73 5.854,3.67C6.603,3.609 7.572,3.608 9,3.608L9,0.208ZM2.7,9.908C2.7,8.48 2.701,7.511 2.762,6.762C2.822,6.034 2.93,5.665 3.06,5.41L0.03,3.866C-0.385,4.68 -0.55,5.546 -0.626,6.485C-0.701,7.404 -0.7,8.536 -0.7,9.908L2.7,9.908ZM2.958,0.938C1.698,1.58 0.673,2.605 0.03,3.866L3.06,5.41C3.376,4.789 3.881,4.284 4.502,3.967L2.958,0.938ZM7.667,12.774L16,12.774L16,9.374L7.667,9.374L7.667,12.774ZM7.667,18.608L21,18.608L21,15.208L7.667,15.208L7.667,18.608Z" fill="#565656"/>
</svg>
