<svg width="48" height="50" viewBox="0 0 48 50" fill="none" xmlns="http://www.w3.org/2000/svg" xmlns:xlink="http://www.w3.org/1999/xlink">
<path d="M27.036,7.997C26.141,7.388 25.083,7.062 24,7.062C22.917,7.062 21.859,7.388 20.964,7.997L11.138,14.678C9.925,15.503 8.932,16.613 8.246,17.909C7.559,19.206 7.2,20.651 7.2,22.118L7.2,39.909C7.2,40.387 7.39,40.845 7.727,41.182C8.065,41.52 8.523,41.709 9,41.709C9.477,41.709 9.935,41.52 10.273,41.182C10.61,40.845 10.8,40.387 10.8,39.909L10.8,22.121C10.8,20.333 11.686,18.66 13.164,17.657L22.987,10.975C23.286,10.772 23.639,10.663 24,10.663C24.361,10.663 24.714,10.772 25.013,10.975L34.836,17.654C35.564,18.149 36.16,18.815 36.572,19.593C36.984,20.371 37.2,21.238 37.2,22.118L37.2,39.909C37.2,40.387 37.39,40.845 37.727,41.182C38.065,41.52 38.523,41.709 39,41.709C39.477,41.709 39.935,41.52 40.273,41.182C40.61,40.845 40.8,40.387 40.8,39.909L40.8,22.121C40.8,20.653 40.441,19.208 39.755,17.91C39.068,16.613 38.075,15.504 36.862,14.678L27.036,7.997Z" fill="#565656"/>
<path d="M24,41.631C23.804,41.682 23.602,41.708 23.4,41.708L16.2,41.708C15.563,41.708 14.953,41.455 14.503,41.005C14.053,40.555 13.8,39.944 13.8,39.308L13.8,30.908C13.8,30.271 14.053,29.661 14.503,29.211C14.953,28.761 15.563,28.508 16.2,28.508L18,28.508L18,21.308C18,20.671 18.253,20.061 18.703,19.611C19.153,19.161 19.763,18.908 20.4,18.908L27.6,18.908C28.237,18.908 28.847,19.161 29.297,19.611C29.747,20.061 30,20.671 30,21.308L30,28.508L31.8,28.508C32.437,28.508 33.047,28.761 33.497,29.211C33.947,29.661 34.2,30.271 34.2,30.908L34.2,39.308C34.2,39.944 33.947,40.555 33.497,41.005C33.047,41.455 32.437,41.708 31.8,41.708L24.6,41.708C24.398,41.708 24.196,41.682 24,41.631ZM25.8,32.108L25.8,38.108L30.6,38.108L30.6,32.108L25.8,32.108ZM22.2,38.108L22.2,32.108L17.4,32.108L17.4,38.108L22.2,38.108ZM26.4,28.508L26.4,22.508L21.6,22.508L21.6,28.508L26.4,28.508Z" clip-rule="evenodd" fill-rule="evenodd" fill="#565656"/>
</svg>
