<svg width="48" height="48" viewBox="0 0 48 48" fill="none" xmlns="http://www.w3.org/2000/svg" xmlns:xlink="http://www.w3.org/1999/xlink">
<path d="M27.036,7.089C26.141,6.48 25.083,6.155 24,6.155C22.917,6.155 21.859,6.48 20.964,7.089L11.138,13.771C9.925,14.596 8.932,15.705 8.246,17.002C7.559,18.298 7.2,19.743 7.2,21.211L7.2,39.002C7.2,39.479 7.39,39.937 7.727,40.274C8.065,40.612 8.523,40.802 9,40.802C9.477,40.802 9.935,40.612 10.273,40.274C10.61,39.937 10.8,39.479 10.8,39.002L10.8,21.213C10.8,19.425 11.686,17.752 13.164,16.749L22.987,10.067C23.286,9.864 23.639,9.755 24,9.755C24.361,9.755 24.714,9.864 25.013,10.067L34.836,16.747C35.564,17.242 36.16,17.907 36.572,18.685C36.984,19.463 37.2,20.33 37.2,21.211L37.2,39.002C37.2,39.479 37.39,39.937 37.727,40.274C38.065,40.612 38.523,40.802 39,40.802C39.477,40.802 39.935,40.612 40.273,40.274C40.61,39.937 40.8,39.479 40.8,39.002L40.8,21.213C40.8,19.745 40.441,18.3 39.755,17.003C39.068,15.706 38.075,14.596 36.862,13.771L27.036,7.089Z" fill="#565656"/>
<path d="M24,40.723C23.804,40.774 23.602,40.8 23.4,40.8L16.2,40.8C15.563,40.8 14.953,40.547 14.503,40.097C14.053,39.647 13.8,39.037 13.8,38.4L13.8,30C13.8,29.363 14.053,28.753 14.503,28.303C14.953,27.853 15.563,27.6 16.2,27.6L18,27.6L18,20.4C18,19.763 18.253,19.153 18.703,18.703C19.153,18.253 19.763,18 20.4,18L27.6,18C28.237,18 28.847,18.253 29.297,18.703C29.747,19.153 30,19.763 30,20.4L30,27.6L31.8,27.6C32.437,27.6 33.047,27.853 33.497,28.303C33.947,28.753 34.2,29.363 34.2,30L34.2,38.4C34.2,39.037 33.947,39.647 33.497,40.097C33.047,40.547 32.437,40.8 31.8,40.8L24.6,40.8C24.398,40.8 24.196,40.774 24,40.723ZM25.8,31.2L25.8,37.2L30.6,37.2L30.6,31.2L25.8,31.2ZM22.2,37.2L22.2,31.2L17.4,31.2L17.4,37.2L22.2,37.2ZM26.4,27.6L26.4,21.6L21.6,21.6L21.6,27.6L26.4,27.6Z" clip-rule="evenodd" fill-rule="evenodd" fill="#565656"/>
</svg>
