<svg width="38" height="32" viewBox="0 0 38 32" fill="none" xmlns="http://www.w3.org/2000/svg" xmlns:xlink="http://www.w3.org/1999/xlink">
<path d="M12.301,17.362L12.301,28.913L23.698,28.913L23.698,17.362L31.219,17.362L18,3.711L4.781,17.362L12.301,17.362ZM17.31,0.553C17.688,0.163 18.313,0.163 18.69,0.553L35.996,18.424C36.587,19.034 36.155,20.056 35.306,20.056L26.389,20.056L26.389,30.645C26.389,31.176 25.959,31.607 25.428,31.607L10.571,31.607C10.04,31.607 9.609,31.176 9.609,30.645L9.609,20.056L0.694,20.056C-0.155,20.056 -0.587,19.034 0.004,18.424L17.31,0.553Z" clip-rule="evenodd" fill-rule="evenodd" fill="#000000"/>
</svg>
