<svg width="48" height="48" viewBox="0 0 48 48" fill="none" xmlns="http://www.w3.org/2000/svg" xmlns:xlink="http://www.w3.org/1999/xlink">
<path d="M16.8,19.8C16.8,17.89 17.559,16.059 18.909,14.709C20.259,13.359 22.09,12.6 24,12.6C25.91,12.6 27.741,13.359 29.091,14.709C30.441,16.059 31.2,17.89 31.2,19.8C31.2,21.71 30.441,23.541 29.091,24.891C27.741,26.241 25.91,27 24,27C22.09,27 20.259,26.241 18.909,24.891C17.559,23.541 16.8,21.71 16.8,19.8ZM24,16.2C23.045,16.2 22.13,16.579 21.454,17.254C20.779,17.93 20.4,18.845 20.4,19.8C20.4,20.755 20.779,21.67 21.454,22.346C22.13,23.021 23.045,23.4 24,23.4C24.955,23.4 25.871,23.021 26.546,22.346C27.221,21.67 27.6,20.755 27.6,19.8C27.6,18.845 27.221,17.93 26.546,17.254C25.871,16.579 24.955,16.2 24,16.2Z" clip-rule="evenodd" fill-rule="evenodd" fill="#565656"/>
<path d="M36.407,37.045C34.697,38.692 32.679,39.985 30.468,40.849C28.257,41.714 25.897,42.132 23.523,42.08C21.15,42.028 18.81,41.508 16.639,40.548C14.467,39.588 12.507,38.208 10.871,36.488C9.235,34.767 7.956,32.74 7.107,30.524C6.258,28.307 5.855,25.944 5.923,23.571C5.991,21.198 6.527,18.861 7.502,16.697C8.476,14.532 9.869,12.581 11.6,10.957C15.067,7.705 19.678,5.956 24.429,6.092C29.18,6.227 33.685,8.237 36.96,11.681C40.235,15.125 42.015,19.725 41.911,24.477C41.808,29.229 39.829,33.747 36.407,37.045ZM12.815,33.063C11.103,30.95 10.025,28.394 9.706,25.694C9.386,22.993 9.838,20.257 11.009,17.802C12.18,15.347 14.022,13.274 16.322,11.823C18.622,10.372 21.286,9.601 24.006,9.601C26.726,9.601 29.39,10.372 31.69,11.823C33.99,13.274 35.832,15.347 37.003,17.802C38.174,20.257 38.626,22.993 38.306,25.694C37.986,28.394 36.909,30.95 35.197,33.063C32.113,30.321 28.13,28.805 24.003,28.801C19.877,28.805 15.898,30.322 12.815,33.063ZM15.421,35.566C17.901,37.412 20.912,38.406 24.003,38.401C27.219,38.401 30.188,37.345 32.586,35.566C30.191,33.528 27.149,32.406 24.003,32.401C20.858,32.406 17.816,33.528 15.421,35.566Z" clip-rule="evenodd" fill-rule="evenodd" fill="#565656"/>
</svg>
