<svg width="48" height="50" viewBox="0 0 48 50" fill="none" xmlns="http://www.w3.org/2000/svg" xmlns:xlink="http://www.w3.org/1999/xlink">
<path d="M16.8,20.708C16.8,18.798 17.558,16.967 18.909,15.617C20.259,14.266 22.09,13.508 24,13.508C25.909,13.508 27.741,14.266 29.091,15.617C30.441,16.967 31.2,18.798 31.2,20.708C31.2,22.617 30.441,24.449 29.091,25.799C27.741,27.149 25.909,27.908 24,27.908C22.09,27.908 20.259,27.149 18.909,25.799C17.558,24.449 16.8,22.617 16.8,20.708ZM24,17.108C23.045,17.108 22.129,17.487 21.454,18.162C20.779,18.837 20.4,19.753 20.4,20.708C20.4,21.662 20.779,22.578 21.454,23.253C22.129,23.928 23.045,24.308 24,24.308C24.955,24.308 25.87,23.928 26.545,23.253C27.221,22.578 27.6,21.662 27.6,20.708C27.6,19.753 27.221,18.837 26.545,18.162C25.87,17.487 24.955,17.108 24,17.108Z" clip-rule="evenodd" fill-rule="evenodd" fill="#565656"/>
<path d="M36.407,37.952C34.697,39.6 32.679,40.893 30.468,41.757C28.257,42.621 25.896,43.039 23.523,42.988C21.15,42.936 18.81,42.415 16.638,41.455C14.467,40.496 12.507,39.116 10.871,37.395C9.235,35.675 7.956,33.648 7.107,31.431C6.257,29.214 5.855,26.851 5.923,24.478C5.991,22.105 6.527,19.769 7.501,17.604C8.476,15.44 9.869,13.489 11.6,11.865C15.066,8.613 19.678,6.864 24.429,6.999C29.18,7.135 33.685,9.144 36.96,12.589C40.235,16.033 42.015,20.633 41.911,25.385C41.808,30.136 39.829,34.654 36.407,37.952ZM12.815,33.971C11.103,31.857 10.025,29.302 9.706,26.601C9.386,23.9 9.838,21.164 11.009,18.71C12.18,16.255 14.022,14.182 16.322,12.731C18.622,11.279 21.286,10.509 24.006,10.509C26.726,10.509 29.39,11.279 31.69,12.731C33.99,14.182 35.832,16.255 37.003,18.71C38.174,21.164 38.626,23.9 38.306,26.601C37.986,29.302 36.909,31.857 35.197,33.971C32.113,31.229 28.13,29.712 24.003,29.708C19.877,29.713 15.898,31.229 12.815,33.971ZM15.421,36.474C17.901,38.32 20.912,39.314 24.003,39.308C27.219,39.308 30.188,38.252 32.586,36.474C30.191,34.435 27.149,33.313 24.003,33.308C20.858,33.313 17.816,34.435 15.421,36.474Z" clip-rule="evenodd" fill-rule="evenodd" fill="#565656"/>
</svg>
