<svg width="22" height="22" viewBox="0 0 22 22" fill="none" xmlns="http://www.w3.org/2000/svg" xmlns:xlink="http://www.w3.org/1999/xlink">
<path d="M9.427,-0.145C9.601,-0.709 10.399,-0.709 10.573,-0.145L12.702,6.744C12.78,6.996 13.012,7.167 13.275,7.167L20.226,7.167C20.8,7.167 21.047,7.896 20.59,8.244L14.916,12.579C14.716,12.731 14.633,12.992 14.707,13.233L16.862,20.206C17.035,20.765 16.389,21.215 15.925,20.86L10.364,16.613C10.149,16.448 9.851,16.448 9.636,16.613L4.075,20.86C3.611,21.215 2.965,20.765 3.138,20.206L5.293,13.233C5.367,12.992 5.284,12.731 5.084,12.579L-0.59,8.244C-1.047,7.896 -0.8,7.167 -0.226,7.167L6.725,7.167C6.988,7.167 7.22,6.996 7.298,6.744L9.427,-0.145Z" fill="#0054A5"/>
</svg>
