<svg width="22" height="22" viewBox="0 0 22 22" fill="none" xmlns="http://www.w3.org/2000/svg" xmlns:xlink="http://www.w3.org/1999/xlink">
<path d="M9.045,1.092C9.335,0.152 10.665,0.152 10.955,1.092L12.615,6.462C12.745,6.881 13.132,7.167 13.57,7.167L19.044,7.167C20,7.167 20.411,8.381 19.651,8.962L15.138,12.409C14.805,12.664 14.666,13.099 14.79,13.499L16.493,19.011C16.78,19.941 15.704,20.692 14.93,20.101L10.607,16.798C10.249,16.524 9.751,16.524 9.393,16.798L5.07,20.101C4.296,20.692 3.22,19.941 3.507,19.011L5.21,13.499C5.334,13.099 5.195,12.664 4.862,12.409L0.349,8.962C-0.411,8.381 0,7.167 0.956,7.167L6.43,7.167C6.868,7.167 7.255,6.881 7.385,6.462L9.045,1.092Z" fill="#D9D9D9"/>
</svg>
