<svg width="22" height="22" viewBox="0 0 22 22" fill="none" xmlns="http://www.w3.org/2000/svg" xmlns:xlink="http://www.w3.org/1999/xlink">
<path d="M9.427,0.763C9.601,0.199 10.399,0.199 10.573,0.763L12.702,7.652C12.78,7.903 13.012,8.075 13.275,8.075L20.226,8.075C20.8,8.075 21.047,8.803 20.59,9.152L14.916,13.486C14.716,13.639 14.633,13.9 14.707,14.14L16.862,21.114C17.035,21.672 16.389,22.123 15.925,21.768L10.364,17.52C10.149,17.356 9.851,17.356 9.636,17.52L4.075,21.768C3.611,22.123 2.965,21.672 3.138,21.114L5.293,14.14C5.367,13.9 5.284,13.639 5.084,13.486L-0.59,9.152C-1.047,8.803 -0.8,8.075 -0.226,8.075L6.725,8.075C6.988,8.075 7.22,7.903 7.298,7.652L9.427,0.763Z" fill="#0054A5"/>
</svg>
