<svg width="46" height="34" viewBox="0 0 46 34" fill="none" xmlns="http://www.w3.org/2000/svg" xmlns:xlink="http://www.w3.org/1999/xlink">
<path d="M20.489,12.136C19.926,11.573 19.926,10.66 20.489,10.096C21.053,9.533 21.966,9.533 22.529,10.096L27.289,14.856L32.048,10.096C32.611,9.533 33.524,9.533 34.088,10.096C34.651,10.66 34.651,11.573 34.088,12.136L29.328,16.895L34.088,21.655C34.651,22.218 34.651,23.131 34.088,23.695C33.524,24.258 32.611,24.258 32.048,23.695L27.289,18.935L22.529,23.695C21.966,24.258 21.053,24.258 20.49,23.695C19.926,23.131 19.926,22.218 20.49,21.655L25.249,16.896L20.489,12.136Z" fill="#000000"/>
<path d="M14.541,2.239L-0.115,16.895L14.541,31.552C15.623,32.634 17.091,33.242 18.621,33.242L38.346,33.242C41.533,33.242 44.116,30.659 44.116,27.472L44.116,6.319C44.116,3.132 41.533,0.549 38.346,0.549L18.621,0.549C17.091,0.549 15.623,1.157 14.541,2.239ZM38.346,30.742L18.621,30.742C17.754,30.742 16.922,30.397 16.309,29.784L3.42,16.895L16.309,4.007C16.922,3.394 17.754,3.049 18.621,3.049L38.346,3.049C40.152,3.049 41.615,4.513 41.615,6.319L41.615,27.472C41.615,29.278 40.152,30.742 38.346,30.742Z" clip-rule="evenodd" fill-rule="evenodd" fill="#000000"/>
</svg>
