<svg width="22" height="36" viewBox="0 0 22 36" fill="none" xmlns="http://www.w3.org/2000/svg" xmlns:xlink="http://www.w3.org/1999/xlink">
<path d="M10.92,-0.643C7.52,-0.643 4.75,2.118 4.75,5.524L4.75,19.805C4.75,23.211 7.513,25.971 10.92,25.971C14.321,25.971 17.09,23.21 17.09,19.805L17.09,5.524C17.09,2.118 14.328,-0.643 10.92,-0.643ZM7.395,5.516L7.395,19.813C7.395,21.738 8.973,23.326 10.92,23.326C12.881,23.326 14.446,21.753 14.446,19.813L14.446,5.516C14.446,3.59 12.867,2.003 10.92,2.003C8.959,2.003 7.395,3.575 7.395,5.516Z" clip-rule="evenodd" fill-rule="evenodd" fill="#000000"/>
<path d="M12.366,33.25L12.366,29.563C19.096,29.178 21.981,23.657 21.981,18.262L21.981,15.775C21.982,15.755 21.982,15.736 21.981,15.716L21.981,15.686C21.981,14.956 21.384,14.364 20.654,14.364C19.924,14.364 19.346,14.956 19.346,15.686L19.346,18.261C19.346,23.656 17.173,27.35 11.02,27.35C5.635,27.35 2.51,23.656 2.51,18.261L2.51,15.775C2.51,15.044 1.918,14.452 1.188,14.452C0.458,14.452 -0.134,15.044 -0.134,15.775L-0.134,18.262C-0.134,23.663 3.712,29.178 9.673,29.563L9.673,33.25L4.718,33.25C3.997,33.25 3.391,33.843 3.391,34.573C3.391,35.309 3.985,35.896 4.718,35.896L17.173,35.896C17.894,35.896 18.519,35.304 18.519,34.573C18.519,33.837 17.906,33.25 17.173,33.25L12.366,33.25Z" fill="#000000"/>
</svg>
