<svg width="20" height="20" viewBox="0 0 20 20" fill="none" xmlns="http://www.w3.org/2000/svg" xmlns:xlink="http://www.w3.org/1999/xlink">
<path d="M16.528,19.027C16.693,19.204 16.892,19.346 17.112,19.444C17.333,19.543 17.571,19.595 17.813,19.6C18.055,19.604 18.295,19.56 18.519,19.469C18.743,19.378 18.947,19.244 19.118,19.073C19.289,18.902 19.423,18.698 19.514,18.474C19.604,18.25 19.649,18.01 19.645,17.768C19.64,17.527 19.587,17.288 19.489,17.067C19.391,16.847 19.249,16.648 19.072,16.483L12.544,9.955L19.072,3.427C19.39,3.086 19.563,2.635 19.555,2.168C19.547,1.702 19.358,1.257 19.028,0.927C18.698,0.597 18.253,0.409 17.787,0.4C17.321,0.392 16.869,0.565 16.528,0.883L10,7.411L3.472,0.883C3.131,0.565 2.679,0.392 2.213,0.4C1.747,0.409 1.302,0.597 0.972,0.927C0.642,1.257 0.453,1.702 0.445,2.168C0.437,2.635 0.61,3.086 0.928,3.427L7.456,9.955L0.928,16.483C0.751,16.648 0.609,16.847 0.511,17.067C0.413,17.288 0.36,17.527 0.355,17.768C0.351,18.01 0.396,18.25 0.486,18.474C0.577,18.698 0.711,18.902 0.882,19.073C1.053,19.244 1.257,19.378 1.481,19.469C1.705,19.56 1.945,19.604 2.187,19.6C2.429,19.595 2.667,19.543 2.888,19.444C3.108,19.346 3.307,19.204 3.472,19.027L10,12.499L16.528,19.027Z" fill="#0054A5"/>
</svg>
