<svg width="32" height="32" viewBox="0 0 32 32" fill="none" xmlns="http://www.w3.org/2000/svg" xmlns:xlink="http://www.w3.org/1999/xlink">
<path d="M8.742,0.4C7.16,0.4 5.63,0.969 4.431,2.003C3.233,3.037 2.446,4.467 2.214,6.033L0.626,16.737C0.475,17.755 0.4,18.784 0.4,19.814L0.4,23.8C0.4,25.869 1.222,27.853 2.685,29.315C4.147,30.778 6.131,31.6 8.2,31.6L23.8,31.6C25.869,31.6 27.853,30.778 29.315,29.315C30.778,27.853 31.6,25.869 31.6,23.8L31.6,19.816C31.6,18.784 31.523,17.757 31.372,16.737L29.788,6.033C29.556,4.467 28.769,3.037 27.571,2.003C26.373,0.969 24.843,0.4 23.26,0.4L8.742,0.4ZM5.774,6.561C5.879,5.849 6.237,5.198 6.782,4.728C7.327,4.258 8.023,4 8.742,4L23.258,4C24.746,4 26.008,5.09 26.226,6.561L27.626,16L21.664,16C21.035,16 20.421,16.199 19.911,16.567C19.401,16.935 19.019,17.455 18.82,18.052L18.438,19.19C18.399,19.309 18.322,19.413 18.22,19.486C18.118,19.56 17.996,19.6 17.87,19.6L14.13,19.6C14.005,19.6 13.882,19.561 13.78,19.487C13.678,19.414 13.602,19.311 13.562,19.192L13.18,18.052C12.981,17.455 12.599,16.935 12.089,16.567C11.579,16.199 10.965,16 10.336,16L4.374,16L5.774,6.561ZM4.002,19.6L4,19.816L4,23.8C4,26.118 5.882,28 8.2,28L23.8,28C24.914,28 25.982,27.558 26.77,26.77C27.558,25.982 28,24.914 28,23.8L28,19.6L22.096,19.6L21.856,20.327C21.577,21.164 21.043,21.891 20.328,22.407C19.613,22.922 18.754,23.2 17.872,23.2L14.128,23.2C13.246,23.2 12.387,22.922 11.672,22.407C10.957,21.891 10.423,21.164 10.144,20.327L9.904,19.6L4.002,19.6Z" clip-rule="evenodd" fill-rule="evenodd" fill="#565656"/>
</svg>
