<svg width="36" height="36" viewBox="0 0 36 36" fill="none" xmlns="http://www.w3.org/2000/svg" xmlns:xlink="http://www.w3.org/1999/xlink">
<path d="M34.02,24.146C31.56,24.146 29.18,23.746 26.96,23.026C26.612,22.908 26.238,22.89 25.881,22.975C25.524,23.06 25.198,23.244 24.94,23.506L21.8,27.446C16.14,24.746 10.84,19.646 8.02,13.786L11.92,10.466C12.46,9.906 12.62,9.126 12.4,8.426C11.66,6.206 11.28,3.826 11.28,1.366C11.28,0.286 10.38,-0.614 9.3,-0.614L2.38,-0.614C1.3,-0.614 0,-0.134 0,1.366C0,19.946 15.46,35.386 34.02,35.386C35.44,35.386 36,34.126 36,33.026L36,26.126C36,25.046 35.1,24.146 34.02,24.146Z" fill="#333333"/>
</svg>
