<svg width="36" height="38" viewBox="0 0 36 38" fill="none" xmlns="http://www.w3.org/2000/svg" xmlns:xlink="http://www.w3.org/1999/xlink">
<path d="M34.02,25.054C31.56,25.054 29.18,24.654 26.96,23.934C26.612,23.816 26.238,23.798 25.881,23.883C25.524,23.968 25.198,24.152 24.94,24.414L21.8,28.354C16.14,25.654 10.84,20.554 8.02,14.694L11.92,11.374C12.46,10.814 12.62,10.034 12.4,9.334C11.66,7.114 11.28,4.734 11.28,2.274C11.28,1.194 10.38,0.294 9.3,0.294L2.38,0.294C1.3,0.294 0,0.774 0,2.274C0,20.854 15.46,36.294 34.02,36.294C35.44,36.294 36,35.034 36,33.934L36,27.034C36,25.954 35.1,25.054 34.02,25.054Z" fill="#333333"/>
</svg>
