<svg width="40" height="18" viewBox="0 0 40 18" fill="none" xmlns="http://www.w3.org/2000/svg" xmlns:xlink="http://www.w3.org/1999/xlink">
<path d="M3.992,-1C2.931,-1 1.914,-0.684 1.164,-0.121C0.414,0.441 -0.008,1.204 -0.008,2L-0.008,14C-0.008,14.796 0.414,15.559 1.164,16.121C1.914,16.684 2.931,17 3.992,17L31.992,17C33.053,17 34.07,16.684 34.821,16.121C35.571,15.559 35.992,14.796 35.992,14L35.992,12.5C37.053,12.5 38.07,12.184 38.821,11.621C39.571,11.059 39.992,10.296 39.992,9.5L39.992,6.5C39.992,5.704 39.571,4.941 38.821,4.379C38.07,3.816 37.053,3.5 35.992,3.5L35.992,2C35.992,1.204 35.571,0.441 34.821,-0.121C34.07,-0.684 33.053,-1 31.992,-1L3.992,-1Z" fill="#202122" stroke="#000000" stroke-width="1" stroke-miterlimit="3.999327"/>
</svg>
