<svg width="32" height="24" viewBox="0 0 32 24" fill="none" xmlns="http://www.w3.org/2000/svg" xmlns:xlink="http://www.w3.org/1999/xlink">
<path d="M7.945,16.024L5.32,12.988C6.549,11.6 7.992,10.5 9.649,9.689C11.306,8.878 13.092,8.472 15.008,8.471C16.924,8.471 18.711,8.882 20.368,9.706C22.024,10.529 23.467,11.647 24.695,13.059L22.07,16.024C21.154,14.988 20.091,14.176 18.883,13.588C17.674,13 16.383,12.706 15.008,12.706C13.633,12.706 12.341,13 11.133,13.588C9.924,14.176 8.862,14.988 7.945,16.024ZM2.633,10.024L0.008,7.059C1.924,4.847 4.164,3.118 6.727,1.871C9.289,0.624 12.049,0 15.008,0C17.966,0 20.727,0.624 23.289,1.871C25.852,3.118 28.091,4.847 30.008,7.059L27.383,10.024C25.779,8.212 23.919,6.794 21.804,5.77C19.689,4.746 17.424,4.234 15.008,4.235C12.591,4.235 10.325,4.747 8.21,5.771C6.095,6.795 4.236,8.213 2.633,10.024ZM15.008,24L19.414,18.988C18.852,18.353 18.195,17.853 17.445,17.488C16.695,17.122 15.883,16.94 15.008,16.941C14.133,16.941 13.32,17.124 12.57,17.489C11.82,17.854 11.164,18.354 10.602,18.988L15.008,24Z" fill="#202122"/>
</svg>
