<svg width="38" height="36" viewBox="0 0 38 36" fill="none" xmlns="http://www.w3.org/2000/svg" xmlns:xlink="http://www.w3.org/1999/xlink">
<path d="M34.723,24.463C32.263,24.463 29.883,24.063 27.663,23.343C27.315,23.225 26.941,23.208 26.584,23.293C26.227,23.378 25.901,23.561 25.643,23.823L22.503,27.763C16.843,25.063 11.543,19.963 8.723,14.103L12.623,10.783C13.163,10.223 13.323,9.443 13.103,8.743C12.363,6.523 11.983,4.143 11.983,1.683C11.983,0.603 11.083,-0.297 10.003,-0.297L3.083,-0.297C2.003,-0.297 0.703,0.183 0.703,1.683C0.703,20.263 16.163,35.703 34.723,35.703C36.143,35.703 36.703,34.443 36.703,33.343L36.703,26.443C36.703,25.363 35.803,24.463 34.723,24.463Z" fill="#0054A5"/>
</svg>
