<svg width="36" height="42" viewBox="0 0 36 42" fill="none" xmlns="http://www.w3.org/2000/svg" xmlns:xlink="http://www.w3.org/1999/xlink">
<path d="M14.292,2.789C14.591,2.051 15.103,1.418 15.764,0.973C16.425,0.528 17.203,0.29 18,0.29C18.797,0.29 19.575,0.528 20.236,0.973C20.896,1.418 21.409,2.051 21.708,2.789C24.666,3.602 27.275,5.363 29.135,7.803C30.994,10.243 32.001,13.226 32,16.293L32,25.688L35.664,31.184C35.865,31.485 35.98,31.835 35.998,32.197C36.015,32.558 35.934,32.918 35.764,33.237C35.593,33.556 35.339,33.823 35.028,34.009C34.717,34.195 34.362,34.294 34,34.294L24.93,34.294C24.689,35.96 23.856,37.483 22.583,38.585C21.311,39.687 19.684,40.294 18,40.294C16.316,40.294 14.689,39.687 13.417,38.585C12.144,37.483 11.311,35.96 11.07,34.294L2,34.294C1.638,34.294 1.283,34.195 0.972,34.009C0.661,33.823 0.407,33.556 0.236,33.237C0.065,32.918 -0.016,32.558 0.002,32.197C0.02,31.835 0.135,31.485 0.336,31.184L4,25.688L4,16.293C4,9.845 8.36,4.413 14.292,2.789ZM15.172,34.294C15.379,34.879 15.762,35.386 16.268,35.744C16.775,36.103 17.38,36.295 18.001,36.295C18.622,36.295 19.227,36.103 19.734,35.744C20.24,35.386 20.623,34.879 20.83,34.294L15.172,34.294ZM18,6.293C15.348,6.293 12.804,7.347 10.929,9.222C9.054,11.098 8,13.641 8,16.293L8,26.294C8,26.689 7.883,27.075 7.664,27.404L5.738,30.294L30.26,30.294L28.334,27.404C28.115,27.075 27.999,26.688 28,26.294L28,16.293C28,13.641 26.946,11.098 25.071,9.222C23.196,7.347 20.652,6.293 18,6.293Z" fill="#000000"/>
</svg>
