<svg width="40" height="18" viewBox="0 0 40 18" fill="none" xmlns="http://www.w3.org/2000/svg" xmlns:xlink="http://www.w3.org/1999/xlink">
<path d="M3.992,-0.092C2.931,-0.092 1.914,0.224 1.164,0.786C0.414,1.349 -0.008,2.112 -0.008,2.908L-0.008,14.908C-0.008,15.703 0.414,16.466 1.164,17.029C1.914,17.592 2.931,17.908 3.992,17.908L31.992,17.908C33.053,17.908 34.07,17.592 34.821,17.029C35.571,16.466 35.992,15.703 35.992,14.908L35.992,13.408C37.053,13.408 38.07,13.092 38.821,12.529C39.571,11.966 39.992,11.203 39.992,10.408L39.992,7.408C39.992,6.612 39.571,5.849 38.821,5.286C38.07,4.724 37.053,4.408 35.992,4.408L35.992,2.908C35.992,2.112 35.571,1.349 34.821,0.786C34.07,0.224 33.053,-0.092 31.992,-0.092L3.992,-0.092Z" fill="#202122" stroke="#DCDCDC" stroke-width="1" stroke-miterlimit="3.999327"/>
</svg>
