<svg width="14" height="26" viewBox="0 0 14 26" fill="none" xmlns="http://www.w3.org/2000/svg" xmlns:xlink="http://www.w3.org/1999/xlink">
<path d="M13.061,3.061C13.646,2.475 13.646,1.525 13.061,0.939C12.475,0.354 11.525,0.354 10.939,0.939L13.061,3.061ZM2,12L0.939,10.939L0.5,11.379L0.5,12L2,12ZM2,14L0.5,14L0.5,14.621L0.939,15.061L2,14ZM10.939,25.061C11.525,25.646 12.475,25.646 13.061,25.061C13.646,24.475 13.646,23.525 13.061,22.939L10.939,25.061ZM10.939,0.939L0.939,10.939L3.061,13.061L13.061,3.061L10.939,0.939ZM0.5,12L0.5,14L3.5,14L3.5,12L0.5,12ZM0.939,15.061L10.939,25.061L13.061,22.939L3.061,12.939L0.939,15.061Z" transform="rotate(360 7 13)" fill="#0054A5"/>
</svg>
