<svg width="32" height="32" viewBox="0 0 32 32" fill="none" xmlns="http://www.w3.org/2000/svg" xmlns:xlink="http://www.w3.org/1999/xlink">
<path d="M8.742,-0.692C7.16,-0.692 5.63,-0.123 4.431,0.911C3.233,1.945 2.446,3.375 2.214,4.941L0.626,15.645C0.475,16.663 0.4,17.692 0.4,18.721L0.4,22.708C0.4,24.776 1.222,26.76 2.685,28.223C4.147,29.686 6.131,30.508 8.2,30.508L23.8,30.508C25.869,30.508 27.853,29.686 29.315,28.223C30.778,26.76 31.6,24.776 31.6,22.708L31.6,18.724C31.6,17.692 31.523,16.665 31.372,15.645L29.788,4.941C29.556,3.375 28.769,1.945 27.571,0.911C26.373,-0.123 24.843,-0.692 23.26,-0.692L8.742,-0.692ZM5.774,5.469C5.879,4.757 6.237,4.106 6.782,3.636C7.327,3.166 8.023,2.907 8.742,2.908L23.258,2.908C24.746,2.908 26.008,3.997 26.226,5.469L27.626,14.908L21.664,14.908C21.035,14.908 20.421,15.107 19.911,15.475C19.401,15.843 19.019,16.363 18.82,16.96L18.438,18.097C18.399,18.217 18.322,18.321 18.22,18.394C18.118,18.468 17.995,18.508 17.87,18.508L14.13,18.508C14.005,18.508 13.882,18.468 13.78,18.395C13.678,18.322 13.602,18.219 13.562,18.1L13.18,16.96C12.981,16.363 12.599,15.843 12.089,15.475C11.579,15.107 10.965,14.908 10.336,14.908L4.374,14.908L5.774,5.469ZM4.002,18.508L4,18.724L4,22.708C4,25.026 5.882,26.908 8.2,26.908L23.8,26.908C24.914,26.908 25.982,26.465 26.77,25.678C27.558,24.89 28,23.822 28,22.708L28,18.508L22.096,18.508L21.856,19.235C21.577,20.071 21.043,20.799 20.328,21.314C19.613,21.83 18.754,22.108 17.872,22.108L14.128,22.108C13.246,22.108 12.387,21.83 11.672,21.314C10.957,20.799 10.423,20.071 10.144,19.235L9.904,18.508L4.002,18.508Z" clip-rule="evenodd" fill-rule="evenodd" fill="#565656"/>
</svg>
