<svg width="20" height="20" viewBox="0 0 20 20" fill="none" xmlns="http://www.w3.org/2000/svg" xmlns:xlink="http://www.w3.org/1999/xlink">
<path d="M11.875,1.875C11.875,1.378 11.677,0.901 11.326,0.549C10.974,0.198 10.497,0 10,0C9.503,0 9.026,0.198 8.674,0.549C8.323,0.901 8.125,1.378 8.125,1.875L8.125,8.125L1.875,8.125C1.378,8.125 0.901,8.323 0.549,8.674C0.198,9.026 0,9.503 0,10C0,10.497 0.198,10.974 0.549,11.326C0.901,11.677 1.378,11.875 1.875,11.875L8.125,11.875L8.125,18.125C8.125,18.622 8.323,19.099 8.674,19.451C9.026,19.802 9.503,20 10,20C10.497,20 10.974,19.802 11.326,19.451C11.677,19.099 11.875,18.622 11.875,18.125L11.875,11.875L18.125,11.875C18.622,11.875 19.099,11.677 19.451,11.326C19.802,10.974 20,10.497 20,10C20,9.503 19.802,9.026 19.451,8.674C19.099,8.323 18.622,8.125 18.125,8.125L11.875,8.125L11.875,1.875Z" fill="#0054A5"/>
</svg>
