<svg width="44" height="26" viewBox="0 0 44 26" fill="none" xmlns="http://www.w3.org/2000/svg" xmlns:xlink="http://www.w3.org/1999/xlink">
<path d="M38.692,0C39.571,0 40.415,0.242 41.037,0.672C41.658,1.102 42.008,1.686 42.008,2.294L42.008,23.706C42.008,24.314 41.658,24.898 41.037,25.328C40.415,25.758 39.571,26 38.692,26C37.813,26 36.969,25.758 36.347,25.328C35.726,24.898 35.376,24.314 35.376,23.706L35.376,2.294C35.376,1.686 35.726,1.102 36.347,0.672C36.969,0.242 37.813,0 38.692,0ZM29.85,4.588C30.729,4.588 31.573,4.83 32.195,5.26C32.816,5.69 33.166,6.274 33.166,6.882L33.166,23.706C33.166,24.314 32.816,24.898 32.195,25.328C31.573,25.758 30.729,26 29.85,26C28.971,26 28.127,25.758 27.505,25.328C26.883,24.898 26.534,24.314 26.534,23.706L26.534,6.882C26.534,6.274 26.883,5.69 27.505,5.26C28.127,4.83 28.971,4.588 29.85,4.588ZM21.008,9.176C21.887,9.176 22.731,9.418 23.352,9.848C23.974,10.279 24.324,10.862 24.324,11.471L24.324,23.706C24.324,24.314 23.974,24.898 23.352,25.328C22.731,25.758 21.887,26 21.008,26C20.128,26 19.285,25.758 18.663,25.328C18.041,24.898 17.692,24.314 17.692,23.706L17.692,11.471C17.692,10.862 18.041,10.279 18.663,9.848C19.285,9.418 20.128,9.176 21.008,9.176ZM12.166,13.765C13.045,13.765 13.888,14.006 14.51,14.437C15.132,14.867 15.481,15.45 15.481,16.059L15.481,23.706C15.481,24.314 15.132,24.898 14.51,25.328C13.888,25.758 13.045,26 12.166,26C11.286,26 10.443,25.758 9.821,25.328C9.199,24.898 8.85,24.314 8.85,23.706L8.85,16.059C8.85,15.45 9.199,14.867 9.821,14.437C10.443,14.006 11.286,13.765 12.166,13.765ZM3.324,18.353C4.203,18.353 5.046,18.595 5.668,19.025C6.29,19.455 6.639,20.039 6.639,20.647L6.639,23.706C6.639,24.314 6.29,24.898 5.668,25.328C5.046,25.758 4.203,26 3.324,26C2.444,26 1.601,25.758 0.979,25.328C0.357,24.898 0.008,24.314 0.008,23.706L0.008,20.647C0.008,20.039 0.357,19.455 0.979,19.025C1.601,18.595 2.444,18.353 3.324,18.353Z" clip-rule="evenodd" fill-rule="evenodd" fill="#202122"/>
</svg>
