<svg width="30" height="32" viewBox="0 0 30 32" fill="none" xmlns="http://www.w3.org/2000/svg" xmlns:xlink="http://www.w3.org/1999/xlink">
<path d="M23.602,31.308L18.802,31.308C18.165,31.308 17.555,31.055 17.105,30.605C16.654,30.155 16.402,29.544 16.402,28.908L16.402,22.908C16.402,22.59 16.275,22.284 16.05,22.059C15.825,21.834 15.52,21.708 15.202,21.708L12.802,21.708C12.483,21.708 12.178,21.834 11.953,22.059C11.728,22.284 11.602,22.59 11.602,22.908L11.602,28.908C11.602,29.544 11.349,30.155 10.899,30.605C10.449,31.055 9.838,31.308 9.202,31.308L4.402,31.308C3.129,31.308 1.908,30.802 1.007,29.902C0.107,29.002 -0.398,27.781 -0.398,26.508L-0.398,16.291C-0.399,15.345 -0.212,14.409 0.15,13.535C0.512,12.661 1.042,11.867 1.711,11.198L10.608,2.301C11.508,1.402 12.729,0.896 14.002,0.896C15.274,0.896 16.495,1.402 17.395,2.301L26.292,11.198C26.961,11.867 27.492,12.661 27.853,13.535C28.215,14.409 28.402,15.345 28.402,16.291L28.402,26.508C28.402,27.781 27.896,29.002 26.996,29.902C26.096,30.802 24.875,31.308 23.602,31.308Z" fill="#0054A5"/>
</svg>
