<svg width="40" height="20" viewBox="0 0 40 20" fill="none" xmlns="http://www.w3.org/2000/svg" xmlns:xlink="http://www.w3.org/1999/xlink">
<path d="M3.992,1C2.931,1 1.914,1.316 1.164,1.879C0.414,2.441 -0.008,3.204 -0.008,4L-0.008,16C-0.008,16.796 0.414,17.559 1.164,18.121C1.914,18.684 2.931,19 3.992,19L31.992,19C33.053,19 34.07,18.684 34.821,18.121C35.571,17.559 35.992,16.796 35.992,16L35.992,14.5C37.053,14.5 38.07,14.184 38.821,13.621C39.571,13.059 39.992,12.296 39.992,11.5L39.992,8.5C39.992,7.704 39.571,6.941 38.821,6.379C38.07,5.816 37.053,5.5 35.992,5.5L35.992,4C35.992,3.204 35.571,2.441 34.821,1.879C34.07,1.316 33.053,1 31.992,1L3.992,1Z" fill="#202122" stroke="#DCDCDC" stroke-width="1" stroke-miterlimit="3.999327"/>
</svg>
