<svg width="32" height="32" viewBox="0 0 32 32" fill="none" xmlns="http://www.w3.org/2000/svg" xmlns:xlink="http://www.w3.org/1999/xlink">
<path d="M21.573,23.029C18.908,25.049 15.575,25.983 12.247,25.641C8.92,25.298 5.847,23.706 3.649,21.185C1.451,18.663 0.292,15.402 0.406,12.059C0.52,8.716 1.9,5.541 4.265,3.176C6.63,0.811 9.805,-0.568 13.147,-0.682C16.49,-0.797 19.752,0.362 22.273,2.561C24.794,4.759 26.387,7.832 26.729,11.159C27.071,14.486 26.138,17.819 24.117,20.485L31.07,27.438C31.247,27.602 31.389,27.801 31.487,28.022C31.585,28.243 31.638,28.481 31.643,28.723C31.647,28.964 31.602,29.204 31.512,29.429C31.421,29.653 31.287,29.856 31.116,30.027C30.945,30.198 30.741,30.333 30.517,30.423C30.293,30.514 30.053,30.558 29.811,30.554C29.569,30.55 29.331,30.497 29.11,30.399C28.889,30.3 28.691,30.158 28.526,29.982L21.573,23.029ZM23.198,12.51C23.198,15.056 22.187,17.497 20.386,19.298C18.586,21.098 16.144,22.11 13.598,22.11C11.052,22.11 8.61,21.098 6.81,19.298C5.009,17.497 3.998,15.056 3.998,12.51C3.998,9.964 5.009,7.522 6.81,5.721C8.61,3.921 11.052,2.91 13.598,2.91C16.144,2.91 18.586,3.921 20.386,5.721C22.187,7.522 23.198,9.964 23.198,12.51Z" clip-rule="evenodd" fill-rule="evenodd" fill="#565656"/>
</svg>
