<svg width="32" height="32" viewBox="0 0 32 32" fill="none" xmlns="http://www.w3.org/2000/svg" xmlns:xlink="http://www.w3.org/1999/xlink">
<path d="M21.573,24.121C18.908,26.142 15.575,27.075 12.247,26.733C8.92,26.391 5.847,24.798 3.649,22.277C1.451,19.756 0.292,16.494 0.406,13.151C0.52,9.808 1.9,6.634 4.265,4.269C6.63,1.903 9.805,0.524 13.147,0.41C16.49,0.296 19.752,1.455 22.273,3.653C24.794,5.851 26.387,8.924 26.729,12.251C27.071,15.579 26.138,18.912 24.117,21.577L31.07,28.53C31.247,28.695 31.389,28.893 31.487,29.114C31.585,29.335 31.638,29.573 31.643,29.815C31.647,30.057 31.602,30.297 31.512,30.521C31.421,30.745 31.287,30.949 31.116,31.12C30.945,31.291 30.741,31.425 30.517,31.516C30.293,31.606 30.053,31.651 29.811,31.647C29.569,31.642 29.331,31.589 29.11,31.491C28.889,31.393 28.691,31.251 28.526,31.074L21.573,24.121ZM23.198,13.602C23.198,16.148 22.187,18.59 20.386,20.39C18.586,22.191 16.144,23.202 13.598,23.202C11.052,23.202 8.61,22.191 6.81,20.39C5.009,18.59 3.998,16.148 3.998,13.602C3.998,11.056 5.009,8.614 6.81,6.814C8.61,5.013 11.052,4.002 13.598,4.002C16.144,4.002 18.586,5.013 20.386,6.814C22.187,8.614 23.198,11.056 23.198,13.602Z" clip-rule="evenodd" fill-rule="evenodd" fill="#222222"/>
</svg>
