<svg width="32" height="26" viewBox="0 0 32 26" fill="none" xmlns="http://www.w3.org/2000/svg" xmlns:xlink="http://www.w3.org/1999/xlink">
<path d="M7.945,16.931L5.32,13.896C6.549,12.508 7.992,11.408 9.649,10.597C11.306,9.785 13.092,9.379 15.008,9.378C16.924,9.378 18.711,9.79 20.368,10.614C22.024,11.437 23.467,12.555 24.695,13.967L22.07,16.931C21.154,15.896 20.091,15.084 18.883,14.496C17.674,13.908 16.383,13.614 15.008,13.614C13.633,13.614 12.341,13.908 11.133,14.496C9.924,15.084 8.862,15.896 7.945,16.931ZM2.633,10.931L0.008,7.967C1.924,5.755 4.164,4.025 6.727,2.778C9.289,1.531 12.049,0.908 15.008,0.908C17.966,0.908 20.727,1.531 23.289,2.778C25.852,4.025 28.091,5.755 30.008,7.967L27.383,10.931C25.779,9.119 23.919,7.702 21.804,6.678C19.689,5.654 17.424,5.142 15.008,5.143C12.591,5.143 10.325,5.655 8.21,6.679C6.095,7.703 4.236,9.12 2.633,10.931ZM15.008,24.908L19.414,19.896C18.852,19.261 18.195,18.76 17.445,18.395C16.695,18.03 15.883,17.848 15.008,17.849C14.133,17.849 13.32,18.031 12.57,18.397C11.82,18.762 11.164,19.262 10.602,19.896L15.008,24.908Z" fill="#202122"/>
</svg>
