<svg width="40" height="38" viewBox="0 0 40 38" fill="none" xmlns="http://www.w3.org/2000/svg" xmlns:xlink="http://www.w3.org/1999/xlink">
<path d="M15.523,7.201C12.901,4.359 8.724,4.359 6.104,7.201C3.396,10.135 3.396,14.955 6.104,17.892L19.679,32.604L33.255,17.892C35.961,14.955 35.961,10.135 33.255,7.201C30.633,4.359 26.456,4.359 23.837,7.201L21.177,10.083C20.986,10.29 20.755,10.455 20.497,10.568C20.239,10.681 19.961,10.739 19.68,10.739C19.399,10.739 19.12,10.681 18.863,10.568C18.605,10.455 18.374,10.29 18.183,10.083L15.523,7.201ZM3.111,4.44C7.345,-0.147 14.28,-0.147 18.514,4.44L19.679,5.7L20.843,4.44C25.077,-0.147 32.012,-0.147 36.246,4.44C40.394,8.935 40.394,16.158 36.246,20.653L22.173,35.907C21.855,36.252 21.47,36.527 21.04,36.715C20.611,36.903 20.147,37 19.679,37C19.21,37 18.746,36.903 18.317,36.715C17.888,36.527 17.502,36.252 17.184,35.907L3.111,20.653C-1.037,16.158 -1.037,8.935 3.111,4.44Z" clip-rule="evenodd" fill-rule="evenodd" fill="#0054A5"/>
</svg>
