<svg width="44" height="28" viewBox="0 0 44 28" fill="none" xmlns="http://www.w3.org/2000/svg" xmlns:xlink="http://www.w3.org/1999/xlink">
<path d="M38.692,0.908C39.571,0.908 40.415,1.149 41.037,1.58C41.658,2.01 42.008,2.593 42.008,3.202L42.008,24.614C42.008,25.222 41.658,25.806 41.037,26.236C40.415,26.666 39.571,26.908 38.692,26.908C37.813,26.908 36.969,26.666 36.347,26.236C35.726,25.806 35.376,25.222 35.376,24.614L35.376,3.202C35.376,2.593 35.726,2.01 36.347,1.58C36.969,1.149 37.813,0.908 38.692,0.908ZM29.85,5.496C30.729,5.496 31.573,5.738 32.195,6.168C32.816,6.598 33.166,7.182 33.166,7.79L33.166,24.614C33.166,25.222 32.816,25.806 32.195,26.236C31.573,26.666 30.729,26.908 29.85,26.908C28.971,26.908 28.127,26.666 27.505,26.236C26.883,25.806 26.534,25.222 26.534,24.614L26.534,7.79C26.534,7.182 26.883,6.598 27.505,6.168C28.127,5.738 28.971,5.496 29.85,5.496ZM21.008,10.084C21.887,10.084 22.731,10.326 23.352,10.756C23.974,11.186 24.324,11.77 24.324,12.378L24.324,24.614C24.324,25.222 23.974,25.806 23.352,26.236C22.731,26.666 21.887,26.908 21.008,26.908C20.128,26.908 19.285,26.666 18.663,26.236C18.041,25.806 17.692,25.222 17.692,24.614L17.692,12.378C17.692,11.77 18.041,11.186 18.663,10.756C19.285,10.326 20.128,10.084 21.008,10.084ZM12.166,14.672C13.045,14.672 13.888,14.914 14.51,15.344C15.132,15.775 15.481,16.358 15.481,16.967L15.481,24.614C15.481,25.222 15.132,25.806 14.51,26.236C13.888,26.666 13.045,26.908 12.166,26.908C11.286,26.908 10.443,26.666 9.821,26.236C9.199,25.806 8.85,25.222 8.85,24.614L8.85,16.967C8.85,16.358 9.199,15.775 9.821,15.344C10.443,14.914 11.286,14.672 12.166,14.672ZM3.324,19.261C4.203,19.261 5.046,19.502 5.668,19.933C6.29,20.363 6.639,20.946 6.639,21.555L6.639,24.614C6.639,25.222 6.29,25.806 5.668,26.236C5.046,26.666 4.203,26.908 3.324,26.908C2.444,26.908 1.601,26.666 0.979,26.236C0.357,25.806 0.008,25.222 0.008,24.614L0.008,21.555C0.008,20.946 0.357,20.363 0.979,19.933C1.601,19.502 2.444,19.261 3.324,19.261Z" clip-rule="evenodd" fill-rule="evenodd" fill="#202122"/>
</svg>
