<svg width="28" height="18" viewBox="0 0 28 18" fill="none" xmlns="http://www.w3.org/2000/svg" xmlns:xlink="http://www.w3.org/1999/xlink">
<path d="M0.792,1.467C1.031,1.242 1.31,1.067 1.615,0.952C1.92,0.837 2.244,0.784 2.569,0.797C2.893,0.809 3.213,0.887 3.508,1.025C3.803,1.163 4.069,1.359 4.29,1.602L13.2,11.372L22.11,1.602C22.556,1.112 23.176,0.822 23.831,0.797C24.487,0.772 25.126,1.013 25.608,1.467C26.089,1.922 26.373,2.552 26.398,3.22C26.423,3.888 26.186,4.539 25.74,5.029L15.015,16.788C14.783,17.043 14.503,17.246 14.19,17.384C13.878,17.523 13.541,17.595 13.2,17.595C12.859,17.595 12.522,17.523 12.21,17.384C11.898,17.246 11.617,17.043 11.385,16.788L0.66,5.029C0.439,4.786 0.267,4.501 0.154,4.191C0.041,3.881 -0.01,3.551 0.002,3.22C0.014,2.889 0.09,2.564 0.226,2.264C0.361,1.963 0.554,1.692 0.792,1.467Z" clip-rule="evenodd" fill-rule="evenodd" fill="#5C5F62"/>
</svg>
