<svg width="34" height="36" viewBox="0 0 34 36" fill="none" xmlns="http://www.w3.org/2000/svg" xmlns:xlink="http://www.w3.org/1999/xlink">
<path d="M28.333,4.128L25,4.128L25,2.462C25,2.02 24.824,1.596 24.512,1.283C24.199,0.971 23.775,0.795 23.333,0.795C22.891,0.795 22.467,0.971 22.155,1.283C21.842,1.596 21.667,2.02 21.667,2.462L21.667,4.128L11.667,4.128L11.667,2.462C11.667,2.02 11.491,1.596 11.179,1.283C10.866,0.971 10.442,0.795 10,0.795C9.558,0.795 9.134,0.971 8.821,1.283C8.509,1.596 8.333,2.02 8.333,2.462L8.333,4.128L5,4.128C3.674,4.128 2.402,4.655 1.464,5.593C0.527,6.53 0,7.802 0,9.128L0,29.128C0,30.454 0.527,31.726 1.464,32.664C2.402,33.602 3.674,34.128 5,34.128L28.333,34.128C29.659,34.128 30.931,33.602 31.869,32.664C32.807,31.726 33.333,30.454 33.333,29.128L33.333,9.128C33.333,7.802 32.807,6.53 31.869,5.593C30.931,4.655 29.659,4.128 28.333,4.128ZM30,29.128C30,29.57 29.824,29.994 29.512,30.307C29.199,30.619 28.775,30.795 28.333,30.795L5,30.795C4.558,30.795 4.134,30.619 3.821,30.307C3.509,29.994 3.333,29.57 3.333,29.128L3.333,17.462L30,17.462L30,29.128ZM30,14.128L3.333,14.128L3.333,9.128C3.333,8.686 3.509,8.262 3.821,7.95C4.134,7.637 4.558,7.462 5,7.462L8.333,7.462L8.333,9.128C8.333,9.57 8.509,9.994 8.821,10.307C9.134,10.619 9.558,10.795 10,10.795C10.442,10.795 10.866,10.619 11.179,10.307C11.491,9.994 11.667,9.57 11.667,9.128L11.667,7.462L21.667,7.462L21.667,9.128C21.667,9.57 21.842,9.994 22.155,10.307C22.467,10.619 22.891,10.795 23.333,10.795C23.775,10.795 24.199,10.619 24.512,10.307C24.824,9.994 25,9.57 25,9.128L25,7.462L28.333,7.462C28.775,7.462 29.199,7.637 29.512,7.95C29.824,8.262 30,8.686 30,9.128L30,14.128Z" fill="#565656"/>
</svg>
