<svg width="42" height="30" viewBox="0 0 42 30" fill="none" xmlns="http://www.w3.org/2000/svg" xmlns:xlink="http://www.w3.org/1999/xlink">
<path d="M41.15,15C41.15,15.617 40.905,16.208 40.469,16.644C40.033,17.08 39.441,17.325 38.825,17.325L8.786,17.325L17.218,25.757C17.628,26.198 17.852,26.781 17.841,27.383C17.831,27.985 17.587,28.56 17.161,28.986C16.735,29.412 16.16,29.656 15.558,29.667C14.955,29.677 14.372,29.454 13.932,29.043L1.532,16.643C1.096,16.207 0.852,15.616 0.852,15C0.852,14.384 1.096,13.793 1.532,13.357L13.932,0.957C14.144,0.729 14.401,0.545 14.686,0.418C14.971,0.291 15.279,0.223 15.592,0.217C15.904,0.212 16.214,0.269 16.503,0.386C16.793,0.503 17.056,0.677 17.277,0.898C17.497,1.119 17.671,1.382 17.788,1.671C17.905,1.961 17.963,2.271 17.957,2.583C17.952,2.895 17.883,3.203 17.756,3.488C17.629,3.773 17.446,4.03 17.218,4.243L8.786,12.675L38.825,12.675C39.441,12.675 40.033,12.92 40.469,13.356C40.905,13.792 41.15,14.383 41.15,15Z" clip-rule="evenodd" fill-rule="evenodd" fill="#0054A5"/>
</svg>
