<svg width="30" height="28" viewBox="0 0 30 28" fill="none" xmlns="http://www.w3.org/2000/svg" xmlns:xlink="http://www.w3.org/1999/xlink">
<path d="M4.091,19.34L2.805,18.055C2.572,18.288 2.407,18.58 2.327,18.899L4.091,19.34ZM2.636,25.158L0.872,24.718C0.718,25.337 0.899,25.993 1.351,26.444C1.802,26.896 2.458,27.077 3.077,26.922L2.636,25.158ZM8.455,23.704L8.896,25.468C9.215,25.388 9.507,25.223 9.74,24.99L8.455,23.704ZM25.307,6.852L26.593,8.137L26.593,8.137L25.307,6.852ZM25.307,2.738L26.593,1.453L26.593,1.453L25.307,2.738ZM25.057,2.488L26.342,1.202L26.342,1.202L25.057,2.488ZM20.943,2.488L19.658,1.202L19.658,1.202L20.943,2.488ZM19.922,3.509C19.212,2.799 18.061,2.799 17.351,3.509C16.641,4.219 16.641,5.37 17.351,6.081L19.922,3.509ZM21.714,10.444C22.424,11.154 23.576,11.154 24.286,10.444C24.996,9.734 24.996,8.583 24.286,7.873L21.714,10.444ZM15.727,23.34C14.723,23.34 13.909,24.154 13.909,25.158C13.909,26.163 14.723,26.977 15.727,26.977L15.727,23.34ZM27.364,26.977C28.368,26.977 29.182,26.163 29.182,25.158C29.182,24.154 28.368,23.34 27.364,23.34L27.364,26.977ZM2.327,18.899L0.872,24.718L4.4,25.599L5.855,19.781L2.327,18.899ZM3.077,26.922L8.896,25.468L8.014,21.94L2.195,23.395L3.077,26.922ZM9.74,24.99L26.593,8.137L24.021,5.566L7.169,22.418L9.74,24.99ZM26.593,8.137C27.479,7.251 27.977,6.048 27.977,4.795L24.341,4.795C24.341,5.084 24.226,5.362 24.021,5.566L26.593,8.137ZM27.977,4.795C27.977,3.541 27.479,2.339 26.593,1.453L24.021,4.024C24.226,4.228 24.341,4.506 24.341,4.795L27.977,4.795ZM26.593,1.453L26.342,1.202L23.771,3.774L24.021,4.024L26.593,1.453ZM26.342,1.202C25.456,0.316 24.254,-0.182 23,-0.182L23,3.454C23.289,3.454 23.567,3.569 23.771,3.774L26.342,1.202ZM23,-0.182C21.746,-0.182 20.544,0.316 19.658,1.202L22.229,3.774C22.433,3.569 22.711,3.454 23,3.454L23,-0.182ZM19.658,1.202L2.805,18.055L5.377,20.626L22.229,3.774L19.658,1.202ZM17.351,6.081L21.714,10.444L24.286,7.873L19.922,3.509L17.351,6.081ZM15.727,26.977L27.364,26.977L27.364,23.34L15.727,23.34L15.727,26.977Z" fill="#FFFFFF"/>
</svg>
