<svg width="30" height="32" viewBox="0 0 30 32" fill="none" xmlns="http://www.w3.org/2000/svg" xmlns:xlink="http://www.w3.org/1999/xlink">
<path d="M23.602,30.4L18.802,30.4C18.165,30.4 17.555,30.147 17.105,29.697C16.654,29.247 16.402,28.636 16.402,28L16.402,22C16.402,21.682 16.275,21.376 16.05,21.151C15.825,20.926 15.52,20.8 15.202,20.8L12.802,20.8C12.483,20.8 12.178,20.926 11.953,21.151C11.728,21.376 11.602,21.682 11.602,22L11.602,28C11.602,28.636 11.349,29.247 10.899,29.697C10.449,30.147 9.838,30.4 9.202,30.4L4.402,30.4C3.129,30.4 1.908,29.894 1.007,28.994C0.107,28.094 -0.398,26.873 -0.398,25.6L-0.398,15.383C-0.399,14.437 -0.212,13.501 0.15,12.627C0.512,11.753 1.042,10.959 1.711,10.29L10.608,1.394C11.508,0.494 12.729,-0.012 14.002,-0.012C15.274,-0.012 16.495,0.494 17.395,1.394L26.292,10.29C26.961,10.959 27.492,11.753 27.853,12.627C28.215,13.501 28.402,14.437 28.402,15.383L28.402,25.6C28.402,26.873 27.896,28.094 26.996,28.994C26.096,29.894 24.875,30.4 23.602,30.4Z" stroke="#565656" stroke-width="1.5" stroke-miterlimit="3.999327"/>
</svg>
