<svg width="42" height="30" viewBox="0 0 42 30" fill="none" xmlns="http://www.w3.org/2000/svg" xmlns:xlink="http://www.w3.org/1999/xlink">
<path d="M41.15,15C41.15,15.616 40.905,16.208 40.469,16.644C40.033,17.08 39.442,17.325 38.825,17.325L8.786,17.325L17.218,25.757C17.629,26.198 17.852,26.78 17.842,27.383C17.831,27.985 17.587,28.56 17.161,28.986C16.735,29.412 16.16,29.656 15.558,29.666C14.956,29.677 14.373,29.453 13.932,29.043L1.532,16.643C1.097,16.207 0.852,15.616 0.852,15C0.852,14.384 1.097,13.793 1.532,13.357L13.932,0.957C14.145,0.728 14.402,0.545 14.687,0.418C14.972,0.291 15.28,0.223 15.592,0.217C15.904,0.212 16.214,0.269 16.504,0.386C16.793,0.503 17.056,0.677 17.277,0.898C17.498,1.119 17.672,1.382 17.789,1.671C17.906,1.961 17.963,2.271 17.958,2.583C17.952,2.895 17.884,3.203 17.757,3.488C17.63,3.773 17.446,4.03 17.218,4.243L8.786,12.675L38.825,12.675C39.442,12.675 40.033,12.92 40.469,13.356C40.905,13.792 41.15,14.383 41.15,15Z" clip-rule="evenodd" fill-rule="evenodd" fill="#0054A5"/>
</svg>
