<svg width="12" height="26" viewBox="0 0 12 26" fill="none" xmlns="http://www.w3.org/2000/svg" xmlns:xlink="http://www.w3.org/1999/xlink">
<path d="M10.707,2.707C11.098,2.317 11.098,1.683 10.707,1.293C10.317,0.902 9.683,0.902 9.293,1.293L10.707,2.707ZM0,12L-0.707,11.293L-1,11.586L-1,12L0,12ZM0,14L-1,14L-1,14.414L-0.707,14.707L0,14ZM9.293,24.707C9.683,25.098 10.317,25.098 10.707,24.707C11.098,24.317 11.098,23.683 10.707,23.293L9.293,24.707ZM9.293,1.293L-0.707,11.293L0.707,12.707L10.707,2.707L9.293,1.293ZM-1,12L-1,14L1,14L1,12L-1,12ZM-0.707,14.707L9.293,24.707L10.707,23.293L0.707,13.293L-0.707,14.707Z" fill="#565656"/>
</svg>
